if (_typeface_js && _typeface_js.loadFace) _typeface_js.loadFace({"glyphs":{"¦":{"x_min":127,"x_max":221,"ha":347,"o":"m 127 -301 l 127 291 l 221 291 l 221 -301 l 127 -301 m 127 474 l 127 1068 l 221 1068 l 221 474 l 127 474 "},"Ž":{"x_min":48.609375,"x_max":513.9375,"ha":574,"o":"m 238 -81 l 502 -81 l 502 -232 l 48 -232 l 331 1137 l 93 1137 l 93 1288 l 513 1288 l 238 -81 m 316 1325 l 287 1325 l 132 1575 l 151 1589 l 301 1451 l 450 1590 l 472 1576 l 316 1325 "},"Á":{"x_min":30.5625,"x_max":672.28125,"ha":703,"o":"m 345 704 l 272 257 l 422 257 l 345 704 m 515 -232 l 451 106 l 243 106 l 180 -232 l 30 -232 l 327 1351 q 335 1367 330 1359 q 350 1375 340 1375 q 364 1367 361 1375 q 370 1351 368 1359 l 672 -232 l 515 -232 m 645 1612 q 628 1574 645 1593 q 588 1539 611 1555 q 540 1509 565 1522 q 501 1487 515 1496 l 377 1414 l 295 1414 l 419 1537 q 454 1574 433 1551 q 498 1618 475 1597 q 544 1654 520 1639 q 588 1670 568 1670 q 627 1653 609 1670 q 645 1612 645 1636 "},"е":{"x_min":114,"x_max":471.40625,"ha":540,"o":"m 114 0 l 114 1056 l 449 1056 l 449 943 l 245 943 l 245 627 l 449 627 l 449 514 l 245 514 l 245 113 l 471 113 l 471 0 l 114 0 "},"Î":{"x_min":104,"x_max":444.53125,"ha":364,"o":"m 104 -232 l 104 1288 l 260 1288 l 260 -232 l 104 -232 m 425 1310 l 275 1447 l 126 1308 l 104 1321 l 259 1574 l 288 1574 l 444 1323 l 425 1310 "},"e":{"x_min":114,"x_max":471.40625,"ha":540,"o":"m 114 0 l 114 1056 l 449 1056 l 449 943 l 245 943 l 245 627 l 449 627 l 449 514 l 245 514 l 245 113 l 471 113 l 471 0 l 114 0 "},"»":{"x_min":66.671875,"x_max":669.5,"ha":711,"o":"m 66 200 l 66 340 l 273 524 l 66 706 l 66 847 l 377 562 l 377 484 l 66 200 m 358 200 l 358 340 l 565 524 l 358 706 l 358 847 l 669 562 l 669 484 l 358 200 "},"∆":{"x_min":0,"x_max":0,"ha":695},"ò":{"x_min":96.953125,"x_max":657,"ha":754,"o":"m 511 502 q 511 569 511 526 q 509 664 512 613 q 499 767 506 714 q 477 861 492 819 q 438 930 462 903 q 377 958 413 958 q 315 933 340 958 q 277 867 291 908 q 254 778 262 827 q 245 680 247 728 q 243 591 243 633 q 243 526 243 549 q 243 459 243 501 q 245 371 243 419 q 256 274 248 323 q 279 186 263 226 q 318 122 294 147 q 379 97 342 97 q 437 120 413 97 q 476 181 461 144 q 498 263 491 217 q 508 354 505 309 q 511 438 511 399 q 511 502 511 478 m 657 494 q 654 392 657 448 q 641 280 651 337 q 613 169 631 223 q 564 75 595 116 q 488 9 533 34 q 379 -16 443 -16 q 265 11 312 -16 q 186 85 217 39 q 137 189 155 131 q 110 309 119 248 q 99 430 101 371 q 97 538 97 489 q 99 642 97 585 q 111 758 102 699 q 139 873 120 817 q 189 972 158 929 q 266 1041 220 1015 q 377 1068 312 1068 q 494 1038 447 1068 q 572 962 541 1009 q 620 853 604 915 q 645 728 637 792 q 655 603 654 664 q 657 494 657 542 m 365 1110 l 241 1183 q 201 1205 226 1192 q 154 1235 177 1218 q 114 1270 131 1251 q 96 1308 96 1289 q 115 1349 96 1332 q 153 1366 133 1366 q 198 1350 174 1366 q 244 1314 221 1335 q 287 1270 267 1293 q 323 1233 308 1247 l 446 1110 l 365 1110 "},"^":{"x_min":37.5,"x_max":516.703125,"ha":556,"o":"m 483 833 l 277 984 l 73 832 l 37 859 l 262 1111 l 291 1111 l 516 860 l 483 833 "},"«":{"x_min":41.671875,"x_max":644.5,"ha":711,"o":"m 41 484 l 41 562 l 352 847 l 352 706 l 145 522 l 352 340 l 352 200 l 41 484 m 333 484 l 333 562 l 644 847 l 644 706 l 437 522 l 644 340 l 644 200 l 333 484 "},"∙":{"x_min":49,"x_max":218,"ha":267,"o":"m 218 523 q 193 463 218 487 q 133 439 169 439 q 73 463 97 439 q 49 523 49 487 q 73 583 49 559 q 133 608 97 608 q 193 583 169 608 q 218 523 218 559 "},"к":{"x_min":114,"x_max":561.6875,"ha":597,"o":"m 561 1056 l 351 568 l 551 0 l 411 0 l 245 466 l 245 0 l 114 0 l 114 1056 l 245 1056 l 245 646 l 421 1056 l 561 1056 "},"í":{"x_min":114,"x_max":485.921875,"ha":358,"o":"m 114 0 l 114 1056 l 245 1056 l 245 0 l 114 0 m 485 1293 q 468 1255 485 1274 q 428 1220 451 1236 q 380 1190 405 1203 q 341 1168 355 1177 l 217 1095 l 135 1095 l 259 1218 q 294 1255 273 1232 q 338 1299 315 1278 q 384 1335 360 1320 q 428 1351 408 1351 q 467 1334 449 1351 q 485 1293 485 1317 "},"ˆ":{"x_min":97.234375,"x_max":437.53125,"ha":535,"o":"m 418 1106 l 268 1243 l 119 1104 l 97 1117 l 252 1370 l 281 1370 l 437 1119 l 418 1106 "},"µ":{"x_min":12.5,"x_max":675.046875,"ha":753,"o":"m 570 0 l 431 0 l 441 62 q 384 1 418 20 q 318 -18 350 -18 q 204 47 248 -18 l 155 -238 l 12 -238 l 156 591 l 306 591 l 259 323 q 246 231 250 268 q 243 178 243 194 q 266 102 243 126 q 330 78 290 78 q 416 127 383 78 q 469 280 450 176 l 525 591 l 675 591 l 570 0 "},"’":{"x_min":9.828125,"x_max":193,"ha":208,"o":"m 193 970 q 180 910 193 937 q 147 861 168 883 q 99 823 126 840 q 44 795 72 806 l 9 830 q 52 863 32 844 q 83 906 73 881 q 34 934 54 913 q 14 990 14 955 q 41 1045 14 1023 q 100 1068 68 1068 q 168 1040 143 1068 q 193 970 193 1012 "},"-":{"x_min":47,"x_max":329,"ha":376,"o":"m 47 456 l 47 567 l 329 567 l 329 456 l 47 456 "},"ѕ":{"x_min":81,"x_max":484,"ha":563,"o":"m 484 188 q 465 100 484 136 q 412 42 446 65 q 331 9 378 19 q 229 0 285 0 l 91 0 l 91 118 l 205 118 q 256 119 229 118 q 304 128 282 120 q 338 152 325 136 q 352 201 352 169 q 331 266 352 229 q 281 348 311 304 q 216 443 251 393 q 151 549 181 494 q 101 664 121 605 q 81 786 81 723 q 97 883 81 840 q 142 958 114 926 q 209 1014 171 991 q 292 1049 247 1037 q 380 1064 332 1061 q 478 1068 428 1068 l 478 949 q 384 944 432 949 q 298 921 336 938 q 236 870 260 904 q 212 781 212 837 q 232 682 212 731 q 282 583 252 633 q 348 484 313 533 q 413 385 382 434 q 463 286 443 336 q 484 188 484 237 "},"Q":{"x_min":68,"x_max":740,"ha":808,"o":"m 564 524 q 564 624 564 563 q 561 755 564 687 q 549 893 558 824 q 522 1019 540 963 q 476 1109 505 1074 q 404 1144 447 1144 q 331 1109 360 1144 q 285 1019 302 1074 q 258 893 267 963 q 246 755 249 824 q 244 624 244 687 q 244 524 244 563 q 244 396 244 475 q 251 232 244 317 q 276 69 259 146 q 328 -51 294 -7 l 328 107 l 481 107 l 481 -57 q 519 15 504 -29 q 543 114 534 60 q 557 226 552 167 q 564 340 562 285 q 564 443 565 395 q 564 524 564 491 m 740 524 q 718 178 740 317 q 661 -50 697 38 q 577 -184 625 -139 q 481 -244 530 -229 l 481 -419 l 328 -419 l 328 -243 q 230 -180 277 -226 q 147 -46 183 -135 q 89 181 111 41 q 68 524 68 320 q 97 920 68 767 q 175 1158 127 1073 q 283 1273 223 1242 q 404 1304 344 1304 q 524 1273 463 1304 q 632 1158 584 1242 q 710 920 680 1073 q 740 524 740 767 "},"Ш":{"x_min":100,"x_max":968,"ha":1068,"o":"m 100 -232 l 100 1288 l 256 1288 l 256 -74 l 456 -74 l 456 1288 l 612 1288 l 612 -74 l 812 -74 l 812 1288 l 968 1288 l 968 -232 l 100 -232 "},"M":{"x_min":52.78125,"x_max":841.734375,"ha":895,"o":"m 700 -232 l 613 548 l 447 -122 l 280 548 l 194 -232 l 52 -232 l 247 1415 l 447 555 l 644 1415 l 841 -232 l 700 -232 "},"ј":{"x_min":23.09375,"x_max":318,"ha":432,"o":"m 318 281 q 301 185 318 230 q 255 103 284 140 q 186 38 226 66 q 99 -5 146 10 q 64 -17 84 -12 q 23 -24 43 -21 l 23 99 q 92 121 61 103 q 143 165 123 138 q 175 225 164 191 q 187 295 187 259 l 187 1056 l 318 1056 l 318 281 "},"œ":{"x_min":97,"x_max":868.40625,"ha":938,"o":"m 511 817 q 502 857 511 833 q 479 903 494 881 q 441 942 463 926 q 391 958 419 958 q 327 933 352 958 q 284 871 301 909 q 259 785 268 833 q 247 689 251 737 q 243 597 243 641 q 243 526 243 554 q 243 454 243 497 q 247 362 243 411 q 259 267 251 314 q 284 181 268 219 q 327 118 301 142 q 391 95 352 95 q 441 111 419 95 q 479 151 463 128 q 502 198 494 174 q 511 237 511 222 l 511 817 m 511 0 l 511 57 q 454 7 489 29 q 377 -15 419 -15 q 268 12 313 -15 q 192 83 223 39 q 142 184 160 128 q 113 302 123 241 q 100 420 103 362 q 97 526 97 479 q 100 632 97 573 q 114 751 103 691 q 144 868 124 811 q 194 969 163 924 q 270 1040 226 1013 q 377 1068 315 1068 q 454 1047 419 1068 q 511 998 488 1027 l 511 1056 l 846 1056 l 846 943 l 642 943 l 642 393 l 846 393 l 846 280 l 642 280 l 642 112 l 868 112 l 868 0 l 511 0 "},"{":{"x_min":31,"x_max":664.078125,"ha":695,"o":"m 664 -293 q 389 -224 483 -293 q 295 -6 295 -156 l 295 133 q 279 242 295 200 q 232 309 264 284 q 150 347 200 334 q 31 369 100 359 l 31 447 q 150 470 100 456 q 232 508 200 483 q 279 577 264 534 q 295 686 295 619 l 295 823 q 389 1042 295 973 q 664 1111 484 1111 l 664 1053 q 575 1044 619 1053 q 497 1012 532 1036 q 441 944 462 989 q 421 829 421 900 l 421 661 q 348 488 421 545 q 137 409 276 431 q 260 379 207 398 q 348 329 312 359 q 402 257 384 299 q 421 156 421 215 l 421 -11 q 441 -126 421 -82 q 497 -194 462 -171 q 575 -226 532 -218 q 664 -235 619 -235 l 664 -293 l 664 -293 "},"¼":{"x_min":74.046875,"x_max":817.5625,"ha":908,"o":"m 690 335 l 615 147 l 690 147 l 690 335 m 762 84 l 762 0 l 691 0 l 691 84 l 516 84 l 728 594 l 762 594 l 762 147 l 817 147 l 817 84 l 762 84 m 124 479 l 124 1056 l 196 1056 l 196 479 l 124 479 m 131 -35 l 74 17 l 747 1076 l 803 1023 l 131 -35 "},"#":{"x_min":37.5,"x_max":1195.921875,"ha":1233,"o":"m 530 640 l 440 403 l 695 403 l 787 640 l 530 640 m 1161 640 l 898 640 l 807 403 l 1070 403 l 1038 317 l 775 317 l 654 0 l 543 0 l 662 317 l 406 317 l 287 0 l 175 0 l 297 317 l 37 317 l 69 403 l 329 403 l 420 640 l 161 640 l 193 726 l 452 726 l 575 1046 l 686 1046 l 565 726 l 819 726 l 941 1046 l 1052 1046 l 930 726 l 1195 726 l 1161 640 "},"Ê":{"x_min":100,"x_max":529.625,"ha":601,"o":"m 100 -232 l 100 1288 l 503 1288 l 503 1137 l 256 1137 l 256 672 l 503 672 l 503 521 l 256 521 l 256 -81 l 529 -81 l 529 -232 l 100 -232 m 439 1325 l 289 1462 l 140 1323 l 118 1336 l 273 1589 l 302 1589 l 458 1338 l 439 1325 "},")":{"x_min":53.9375,"x_max":387,"ha":443,"o":"m 387 515 q 372 361 387 431 q 330 227 357 291 q 263 103 303 163 q 173 -19 223 42 l 72 -19 q 201 240 155 102 q 247 526 247 379 q 231 691 247 609 q 181 849 215 773 q 123 962 155 909 q 53 1068 91 1015 l 163 1068 q 327 811 267 951 q 387 515 387 672 "},"э":{"x_min":110.09375,"x_max":541,"ha":609,"o":"m 110 958 l 110 1082 q 196 1047 153 1066 q 278 1002 240 1029 q 471 792 401 918 q 541 516 541 667 q 508 331 541 419 q 419 173 476 244 q 285 51 362 102 q 114 -24 207 0 l 114 96 q 228 171 175 128 q 321 265 282 213 q 384 380 361 317 q 410 514 407 443 l 194 514 l 194 627 l 399 627 q 294 823 372 739 q 110 958 217 908 "},"Å":{"x_min":30.5625,"x_max":672.28125,"ha":703,"o":"m 345 704 l 272 257 l 422 257 l 345 704 m 515 -232 l 451 106 l 243 106 l 180 -232 l 30 -232 l 327 1351 q 335 1367 330 1359 q 350 1375 340 1375 q 364 1367 361 1375 q 370 1351 368 1359 l 672 -232 l 515 -232 m 402 1513 q 385 1554 402 1537 q 344 1572 368 1572 q 303 1554 320 1572 q 286 1513 286 1537 q 303 1473 286 1490 q 344 1457 320 1457 q 385 1473 368 1457 q 402 1513 402 1490 m 466 1513 q 456 1467 466 1488 q 430 1429 446 1445 q 392 1403 414 1413 q 346 1394 371 1394 q 298 1403 321 1394 q 260 1429 276 1413 q 234 1467 244 1445 q 225 1513 225 1488 q 260 1599 225 1563 q 346 1635 296 1635 q 392 1625 371 1635 q 430 1599 414 1615 q 456 1561 446 1583 q 466 1513 466 1538 "},"ш":{"x_min":114,"x_max":873,"ha":987,"o":"m 114 0 l 114 1056 l 245 1056 l 245 113 l 428 113 l 428 1056 l 559 1056 l 559 113 l 742 113 l 742 1056 l 873 1056 l 873 0 l 114 0 "},"Я":{"x_min":58,"x_max":558,"ha":661,"o":"m 58 634 q 94 859 58 749 q 196 1061 130 969 q 354 1222 262 1154 q 558 1325 446 1291 l 558 -232 l 402 -232 l 402 37 l 378 51 l 241 -232 l 69 -232 l 253 143 q 108 370 159 247 q 58 634 58 494 m 211 619 q 224 507 211 565 q 264 396 238 449 q 325 295 289 343 q 402 215 360 248 l 402 1052 q 324 963 359 1013 q 263 855 288 912 q 224 738 238 798 q 211 619 211 677 "},"¸":{"x_min":172.375,"x_max":343.046875,"ha":615,"o":"m 262 -127 q 313 -200 301 -165 q 325 -275 325 -234 q 297 -361 325 -316 q 220 -434 269 -406 l 172 -398 q 229 -339 212 -373 q 246 -272 246 -305 q 230 -200 247 -236 q 172 -141 212 -163 l 306 45 l 343 0 l 262 -127 "},"a":{"x_min":51.390625,"x_max":586.15625,"ha":638,"o":"m 315 621 l 251 342 l 379 342 l 315 621 m 455 0 l 401 234 l 229 234 l 176 0 l 51 0 l 300 1100 q 306 1112 301 1107 q 318 1117 311 1117 q 329 1111 327 1117 q 334 1099 331 1106 l 586 0 l 455 0 "},"=":{"x_min":113.890625,"x_max":719.5,"ha":833,"o":"m 113 374 l 113 474 l 719 474 l 719 374 l 113 374 m 113 571 l 113 671 l 719 671 l 719 571 l 113 571 "},"˚":{"x_min":51,"x_max":292,"ha":343,"o":"m 228 1223 q 211 1264 228 1247 q 170 1282 194 1282 q 129 1264 146 1282 q 112 1223 112 1247 q 129 1183 112 1200 q 170 1167 146 1167 q 211 1183 194 1167 q 228 1223 228 1200 m 292 1223 q 282 1177 292 1198 q 256 1139 272 1155 q 218 1113 240 1123 q 172 1104 197 1104 q 124 1113 147 1104 q 86 1139 102 1123 q 60 1177 70 1155 q 51 1223 51 1198 q 86 1309 51 1273 q 172 1345 122 1345 q 218 1335 197 1345 q 256 1309 240 1325 q 282 1271 272 1293 q 292 1223 292 1248 "},"ú":{"x_min":114,"x_max":663.921875,"ha":700,"o":"m 114 0 l 114 1056 l 245 1056 l 245 113 l 455 113 l 455 1056 l 586 1056 l 586 0 l 114 0 m 663 1292 q 646 1254 663 1273 q 606 1219 629 1235 q 558 1189 583 1202 q 519 1167 533 1176 l 395 1094 l 313 1094 l 437 1217 q 472 1254 451 1231 q 516 1298 493 1277 q 562 1334 538 1319 q 606 1350 586 1350 q 645 1333 627 1350 q 663 1292 663 1316 "},"д":{"x_min":19.5,"x_max":674.671875,"ha":683,"o":"m 107 -7 l 107 -103 l 25 -103 l 19 104 l 114 104 l 113 423 q 144 649 113 548 q 236 833 176 751 q 382 979 295 915 q 580 1093 469 1043 l 580 105 l 674 105 l 674 -104 l 583 -103 l 583 -7 l 107 -7 m 455 876 q 358 781 401 834 q 288 666 316 727 q 245 538 260 605 q 231 404 231 472 l 233 104 l 455 104 l 455 876 l 455 876 "},"¯":{"x_min":54,"x_max":336,"ha":390,"o":"m 54 1111 l 54 1194 l 336 1194 l 336 1111 l 54 1111 "},"Z":{"x_min":48.609375,"x_max":513.9375,"ha":574,"o":"m 238 -81 l 502 -81 l 502 -232 l 48 -232 l 331 1137 l 93 1137 l 93 1288 l 513 1288 l 238 -81 "},"u":{"x_min":114,"x_max":586,"ha":700,"o":"m 114 0 l 114 1056 l 245 1056 l 245 113 l 455 113 l 455 1056 l 586 1056 l 586 0 l 114 0 "},"k":{"x_min":114,"x_max":561.6875,"ha":597,"o":"m 561 1056 l 351 568 l 551 0 l 411 0 l 245 466 l 245 0 l 114 0 l 114 1056 l 245 1056 l 245 646 l 421 1056 l 561 1056 "},"Ù":{"x_min":99.953125,"x_max":667,"ha":767,"o":"m 100 -232 l 100 1288 l 256 1288 l 256 -74 l 511 -74 l 511 1288 l 667 1288 l 667 -232 l 100 -232 m 368 1347 l 244 1420 q 204 1442 229 1429 q 157 1472 180 1455 q 117 1507 134 1488 q 99 1545 99 1526 q 118 1586 99 1569 q 156 1603 136 1603 q 201 1587 177 1603 q 247 1551 224 1572 q 290 1507 270 1530 q 326 1470 311 1484 l 449 1347 l 368 1347 "},"З":{"x_min":99.53125,"x_max":608,"ha":666,"o":"m 99 1320 q 288 1292 198 1320 q 445 1209 377 1264 q 552 1074 512 1154 q 593 887 593 993 q 559 704 593 791 q 473 538 526 616 q 573 377 538 468 q 608 191 608 287 q 590 60 608 123 q 539 -55 573 -1 q 457 -153 506 -110 q 346 -224 409 -196 q 225 -254 293 -247 q 99 -263 156 -261 l 99 -99 q 146 -97 121 -99 q 196 -93 171 -96 q 241 -85 220 -90 q 280 -73 263 -80 q 399 33 355 -37 q 444 191 444 105 q 432 301 444 254 q 397 388 420 348 q 342 461 374 427 q 270 529 310 494 q 383 692 337 601 q 429 887 429 783 q 401 1003 429 953 q 329 1087 374 1053 q 224 1138 284 1121 q 99 1156 165 1156 l 99 1320 "},"¢":{"x_min":118,"x_max":495,"ha":643,"o":"m 495 651 q 461 528 492 574 q 356 462 431 481 l 356 362 l 263 362 l 263 467 q 196 494 223 473 q 152 549 169 516 q 126 626 134 582 q 118 719 118 669 q 122 808 118 764 q 143 889 127 852 q 187 953 158 926 q 263 994 215 980 l 263 1079 l 356 1079 l 356 995 q 450 933 421 980 q 482 823 479 887 l 378 823 q 373 848 378 835 q 362 873 369 862 q 342 893 354 885 q 314 901 330 901 q 269 882 284 901 q 245 838 253 864 q 236 783 237 812 q 235 734 235 755 q 236 684 235 713 q 245 627 237 655 q 269 580 253 599 q 314 561 285 561 q 370 586 353 561 q 392 651 387 612 l 495 651 l 495 651 "},"é":{"x_min":114,"x_max":581.921875,"ha":540,"o":"m 114 0 l 114 1056 l 449 1056 l 449 943 l 245 943 l 245 627 l 449 627 l 449 514 l 245 514 l 245 113 l 471 113 l 471 0 l 114 0 m 581 1289 q 564 1251 581 1270 q 524 1216 547 1232 q 476 1186 501 1199 q 437 1164 451 1173 l 313 1091 l 231 1091 l 355 1214 q 390 1251 369 1228 q 434 1295 411 1274 q 480 1331 456 1316 q 524 1347 504 1347 q 563 1330 545 1347 q 581 1289 581 1313 "},"B":{"x_min":100,"x_max":608.265625,"ha":667,"o":"m 444 211 q 432 309 444 265 q 397 390 420 353 q 343 461 375 428 q 271 529 311 494 q 383 692 337 601 q 429 882 429 782 q 417 963 429 924 q 383 1037 405 1003 q 329 1096 361 1071 q 256 1133 297 1121 l 256 -71 q 342 -39 307 -67 q 400 30 377 -10 q 433 120 423 72 q 444 211 444 168 m 608 191 q 590 60 608 123 q 540 -55 573 -1 q 458 -153 506 -110 q 347 -224 409 -196 q 225 -254 294 -247 q 100 -263 156 -261 l 100 1320 q 288 1292 198 1320 q 445 1209 377 1264 q 552 1074 512 1154 q 593 887 593 993 q 559 704 593 791 q 473 538 526 616 q 573 377 538 468 q 608 191 608 287 "},"…":{"x_min":49,"x_max":752,"ha":801,"o":"m 218 68 q 193 8 218 32 q 133 -16 169 -16 q 73 8 97 -16 q 49 68 49 32 q 73 128 49 104 q 133 153 97 153 q 193 128 169 153 q 218 68 218 104 m 485 68 q 460 8 485 32 q 400 -16 436 -16 q 340 8 364 -16 q 316 68 316 32 q 340 128 316 104 q 400 153 364 153 q 460 128 436 153 q 485 68 485 104 m 752 68 q 727 8 752 32 q 667 -16 703 -16 q 607 8 631 -16 q 583 68 583 32 q 607 128 583 104 q 667 153 631 153 q 727 128 703 153 q 752 68 752 104 "},"В":{"x_min":100,"x_max":608.265625,"ha":667,"o":"m 444 211 q 432 309 444 265 q 397 390 420 353 q 343 461 375 428 q 271 529 311 494 q 383 692 337 601 q 429 882 429 782 q 417 963 429 924 q 383 1037 405 1003 q 329 1096 361 1071 q 256 1133 297 1121 l 256 -71 q 342 -39 307 -67 q 400 30 377 -10 q 433 120 423 72 q 444 211 444 168 m 608 191 q 590 60 608 123 q 540 -55 573 -1 q 458 -153 506 -110 q 347 -224 409 -196 q 225 -254 294 -247 q 100 -263 156 -261 l 100 1320 q 288 1292 198 1320 q 445 1209 377 1264 q 552 1074 512 1154 q 593 887 593 993 q 559 704 593 791 q 473 538 526 616 q 573 377 538 468 q 608 191 608 287 "},"І":{"x_min":104,"x_max":260,"ha":364,"o":"m 104 -232 l 104 1288 l 260 1288 l 260 -232 l 104 -232 "},"H":{"x_min":100,"x_max":667,"ha":767,"o":"m 511 -232 l 511 521 l 256 521 l 256 -232 l 100 -232 l 100 1288 l 256 1288 l 256 672 l 511 672 l 511 1288 l 667 1288 l 667 -232 l 511 -232 "},"î":{"x_min":114,"x_max":454.53125,"ha":358,"o":"m 114 0 l 114 1056 l 245 1056 l 245 0 l 114 0 m 435 1084 l 285 1221 l 136 1082 l 114 1095 l 269 1348 l 298 1348 l 454 1097 l 435 1084 "},"−":{"x_min":113.890625,"x_max":719.5,"ha":833,"o":"m 113 472 l 113 572 l 719 572 l 719 472 l 113 472 "},"≠":{"x_min":113.890625,"x_max":719.5,"ha":833,"o":"m 394 374 l 270 133 l 184 169 l 288 374 l 113 374 l 113 474 l 340 474 l 390 571 l 113 571 l 113 671 l 441 671 l 563 909 l 650 873 l 545 671 l 719 671 l 719 571 l 494 571 l 444 474 l 719 474 l 719 374 l 394 374 "},"¥":{"x_min":63.890625,"x_max":601.4375,"ha":643,"o":"m 393 370 l 566 370 l 566 310 l 373 310 l 354 240 l 566 240 l 566 180 l 334 180 l 280 0 l 151 0 l 205 180 l 80 180 l 80 240 l 223 240 l 244 310 l 80 310 l 80 370 l 248 370 l 63 1056 l 194 1056 l 323 568 l 472 1056 l 601 1056 l 393 370 "},"U":{"x_min":100,"x_max":667,"ha":767,"o":"m 100 -232 l 100 1288 l 256 1288 l 256 -74 l 511 -74 l 511 1288 l 667 1288 l 667 -232 l 100 -232 "},"Ñ":{"x_min":100,"x_max":654,"ha":754,"o":"m 500 -232 l 500 425 l 256 813 l 256 -232 l 100 -232 l 100 1340 l 500 720 l 500 1287 l 654 1287 l 654 -232 l 500 -232 m 560 1521 q 547 1466 556 1495 q 526 1412 539 1437 q 491 1370 512 1387 q 439 1352 469 1352 q 396 1363 418 1352 q 356 1385 375 1373 q 317 1407 336 1397 q 281 1418 297 1418 q 259 1411 268 1418 q 244 1393 250 1404 q 233 1370 237 1383 q 225 1348 229 1358 l 179 1348 q 193 1401 185 1372 q 215 1455 201 1430 q 249 1497 228 1480 q 301 1514 269 1514 q 341 1503 322 1514 q 378 1481 360 1493 q 415 1459 396 1469 q 456 1448 433 1448 q 481 1455 471 1448 q 497 1473 490 1462 q 508 1497 504 1484 q 517 1521 512 1509 l 560 1521 l 560 1521 "},"F":{"x_min":100,"x_max":503.234375,"ha":564,"o":"m 256 521 l 256 -232 l 100 -232 l 100 1288 l 503 1288 l 503 1137 l 256 1137 l 256 672 l 503 672 l 503 521 l 256 521 "},"*":{"x_min":34.4375,"x_max":424.9375,"ha":460,"o":"m 424 795 q 411 765 424 777 q 380 753 397 753 q 347 765 365 753 q 311 794 329 777 q 274 827 292 810 q 241 852 256 844 q 247 819 242 835 q 258 787 252 803 q 270 755 265 771 q 275 724 275 739 q 263 689 275 703 q 230 676 252 676 q 194 689 206 676 q 183 724 183 702 q 187 753 183 738 q 199 785 192 769 q 210 818 205 801 q 217 852 216 835 q 184 827 202 844 q 148 794 166 810 q 112 765 130 777 q 78 753 94 753 q 48 765 62 753 q 34 795 34 777 q 53 829 34 817 q 100 848 73 841 q 155 860 127 855 q 201 872 184 865 q 157 883 185 878 q 101 895 128 888 q 54 915 74 902 q 34 948 34 927 q 49 978 34 966 q 80 990 63 990 q 112 978 95 990 q 148 949 130 966 q 184 916 166 933 q 217 891 202 899 q 210 925 216 908 q 199 959 205 942 q 187 991 192 976 q 183 1019 183 1006 q 194 1054 183 1041 q 230 1068 206 1068 q 263 1054 252 1068 q 275 1019 275 1040 q 270 988 275 1004 q 258 956 265 972 q 247 924 252 940 q 241 891 242 908 q 274 916 256 899 q 311 949 292 933 q 346 978 329 966 q 379 990 363 990 q 410 978 395 990 q 424 948 424 966 q 404 915 424 927 q 356 895 384 902 q 301 883 329 888 q 256 872 273 878 q 301 860 273 865 q 356 848 329 855 q 404 828 384 841 q 424 795 424 816 "},"†":{"x_min":96.328125,"x_max":598.671875,"ha":695,"o":"m 407 626 l 407 -69 l 288 -69 l 288 626 l 96 626 l 96 733 l 288 733 l 288 942 l 407 942 l 407 733 l 598 733 l 598 626 l 407 626 "},"∕":{"x_min":-322.25,"x_max":641.71875,"ha":319,"o":"m -247 -35 l -322 17 l 568 1076 l 641 1023 l -247 -35 "},"°":{"x_min":51,"x_max":292,"ha":343,"o":"m 228 934 q 211 975 228 958 q 170 993 194 993 q 129 975 146 993 q 112 934 112 958 q 129 894 112 911 q 170 878 146 878 q 211 894 194 878 q 228 934 228 911 m 292 934 q 282 888 292 909 q 256 850 272 866 q 218 824 240 834 q 172 815 197 815 q 124 824 147 815 q 86 850 102 834 q 60 888 70 866 q 51 934 51 909 q 86 1020 51 984 q 172 1056 122 1056 q 218 1046 197 1056 q 256 1020 240 1036 q 282 982 272 1004 q 292 934 292 959 "},"å":{"x_min":51.390625,"x_max":586.15625,"ha":638,"o":"m 315 621 l 251 342 l 379 342 l 315 621 m 455 0 l 401 234 l 229 234 l 176 0 l 51 0 l 300 1100 q 306 1112 301 1107 q 318 1117 311 1117 q 329 1111 327 1117 q 334 1099 331 1106 l 586 0 l 455 0 m 375 1251 q 358 1292 375 1275 q 317 1310 341 1310 q 276 1292 293 1310 q 259 1251 259 1275 q 276 1211 259 1228 q 317 1195 293 1195 q 358 1211 341 1195 q 375 1251 375 1228 m 439 1251 q 429 1205 439 1226 q 403 1167 419 1183 q 365 1141 387 1151 q 319 1132 344 1132 q 271 1141 294 1132 q 233 1167 249 1151 q 207 1205 217 1183 q 198 1251 198 1226 q 233 1337 198 1301 q 319 1373 269 1373 q 365 1363 344 1373 q 403 1337 387 1353 q 429 1299 419 1321 q 439 1251 439 1276 "},"0":{"x_min":69,"x_max":575,"ha":643,"o":"m 431 522 q 426 711 431 631 q 410 843 422 791 q 376 921 398 895 q 319 947 354 947 q 261 921 282 947 q 230 843 240 895 q 216 711 219 791 q 213 522 213 631 q 216 332 213 412 q 230 200 219 252 q 261 122 240 148 q 319 97 282 97 q 376 122 354 97 q 410 200 398 148 q 426 332 422 252 q 431 522 431 412 m 575 521 q 575 420 575 477 q 568 303 575 363 q 548 186 562 243 q 506 84 534 129 q 432 11 477 39 q 319 -16 387 -16 q 206 11 251 -16 q 134 84 162 39 q 92 186 106 129 q 73 303 78 243 q 69 420 69 363 q 69 521 69 477 q 69 621 69 564 q 73 738 69 678 q 92 855 78 798 q 134 957 106 913 q 206 1030 162 1002 q 319 1058 251 1058 q 432 1030 387 1058 q 506 957 477 1002 q 548 855 534 913 q 568 738 562 798 q 575 621 575 678 q 575 521 575 564 "},"”":{"x_min":10,"x_max":402,"ha":417,"o":"m 193 970 q 180 910 193 937 q 147 861 168 883 q 99 823 126 840 q 44 795 72 806 l 10 830 q 52 863 32 844 q 83 906 73 881 q 34 934 54 913 q 14 990 14 955 q 41 1045 14 1023 q 100 1068 68 1068 q 168 1040 143 1068 q 193 970 193 1012 m 402 970 q 389 910 402 937 q 356 861 377 883 q 308 823 335 840 q 253 795 281 806 l 219 830 q 261 863 241 844 q 292 906 282 881 q 243 934 263 913 q 223 990 223 955 q 250 1045 223 1023 q 309 1068 277 1068 q 377 1040 352 1068 q 402 970 402 1012 "},"ö":{"x_min":97,"x_max":657,"ha":754,"o":"m 511 502 q 511 569 511 526 q 509 664 512 613 q 499 767 506 714 q 477 861 492 819 q 438 930 462 903 q 377 958 413 958 q 315 933 340 958 q 277 867 291 908 q 254 778 262 827 q 245 680 247 728 q 243 591 243 633 q 243 526 243 549 q 243 459 243 501 q 245 371 243 419 q 256 274 248 323 q 279 186 263 226 q 318 122 294 147 q 379 97 342 97 q 437 120 413 97 q 476 181 461 144 q 498 263 491 217 q 508 354 505 309 q 511 438 511 399 q 511 502 511 478 m 657 494 q 654 392 657 448 q 641 280 651 337 q 613 169 631 223 q 564 75 595 116 q 488 9 533 34 q 379 -16 443 -16 q 265 11 312 -16 q 186 85 217 39 q 137 189 155 131 q 110 309 119 248 q 99 430 101 371 q 97 538 97 489 q 99 642 97 585 q 111 758 102 699 q 139 873 120 817 q 189 972 158 929 q 266 1041 220 1015 q 377 1068 312 1068 q 494 1038 447 1068 q 572 962 541 1009 q 620 853 604 915 q 645 728 637 792 q 655 603 654 664 q 657 494 657 542 m 346 1160 q 327 1117 346 1135 q 284 1099 309 1099 q 240 1117 258 1099 q 222 1160 222 1135 q 240 1204 222 1186 q 284 1223 258 1223 q 327 1204 309 1223 q 346 1160 346 1186 m 534 1160 q 515 1117 534 1135 q 471 1099 497 1099 q 427 1117 445 1099 q 409 1160 409 1135 q 427 1204 409 1186 q 471 1223 445 1223 q 515 1204 497 1223 q 534 1160 534 1186 "},"Õ":{"x_min":68,"x_max":740,"ha":808,"o":"m 564 524 q 564 624 564 563 q 561 755 564 687 q 549 893 558 824 q 522 1018 540 963 q 476 1109 505 1074 q 404 1144 447 1144 q 331 1109 360 1144 q 285 1018 302 1074 q 258 893 267 963 q 246 755 249 824 q 244 624 244 687 q 244 524 244 563 q 244 423 244 485 q 247 293 244 361 q 260 155 250 224 q 287 30 269 85 q 334 -60 305 -25 q 406 -95 363 -95 q 478 -60 449 -95 q 524 30 506 -25 q 550 155 541 85 q 561 293 558 224 q 564 423 565 361 q 564 524 564 484 m 740 524 q 726 241 740 362 q 688 33 712 120 q 633 -109 665 -53 q 564 -198 601 -165 q 487 -243 527 -231 q 406 -256 447 -256 q 326 -243 366 -256 q 248 -198 285 -231 q 177 -110 211 -165 q 120 32 144 -54 q 81 240 95 119 q 68 524 68 362 q 97 920 68 767 q 175 1158 127 1073 q 283 1273 223 1242 q 404 1304 344 1304 q 524 1273 463 1304 q 632 1158 584 1242 q 710 920 680 1073 q 740 524 740 767 m 583 1540 q 570 1485 579 1514 q 549 1431 562 1456 q 514 1389 535 1406 q 462 1371 492 1371 q 419 1382 441 1371 q 379 1404 398 1392 q 340 1426 359 1416 q 304 1437 320 1437 q 282 1430 291 1437 q 267 1412 273 1423 q 256 1389 260 1402 q 248 1367 252 1377 l 202 1367 q 216 1420 208 1391 q 238 1474 224 1449 q 272 1516 251 1499 q 324 1533 292 1533 q 364 1522 345 1533 q 401 1500 383 1512 q 438 1478 419 1488 q 479 1467 456 1467 q 504 1474 494 1467 q 520 1492 513 1481 q 531 1516 527 1503 q 540 1540 535 1528 l 583 1540 l 583 1540 "},"№":{"x_min":100,"x_max":1093,"ha":1190,"o":"m 500 -232 l 500 424 l 256 813 l 256 -232 l 100 -232 l 100 1340 l 500 720 l 500 1287 l 654 1287 l 654 -232 l 500 -232 m 798 428 l 798 539 l 1079 539 l 1079 428 l 798 428 m 1004 834 q 988 979 1004 939 q 944 1019 972 1019 q 900 979 915 1019 q 885 834 885 939 q 889 746 885 781 q 900 689 893 711 q 918 659 907 668 q 944 650 929 650 q 969 659 958 650 q 988 689 980 668 q 999 746 995 711 q 1004 834 1004 781 m 1093 834 q 1056 641 1093 700 q 944 582 1019 582 q 831 641 868 582 q 795 834 795 700 q 831 1026 795 967 q 944 1086 868 1086 q 1056 1026 1019 1086 q 1093 834 1093 967 "},"þ":{"x_min":114,"x_max":540,"ha":578,"o":"m 416 538 q 402 627 416 584 q 365 708 388 670 q 311 776 342 745 q 245 827 279 807 l 244 244 q 311 297 280 265 q 366 368 342 329 q 402 452 389 408 q 416 538 416 495 m 540 543 q 518 404 540 469 q 458 283 497 339 q 364 183 419 228 q 245 105 310 139 l 245 0 l 114 0 l 114 1056 l 245 1056 l 245 967 q 366 891 311 935 q 459 793 420 847 q 519 676 498 739 q 540 543 540 612 "},"]":{"x_min":126.890625,"x_max":331,"ha":444,"o":"m 126 -145 l 126 -46 l 213 -46 l 213 956 l 126 956 l 126 1056 l 331 1056 l 331 -145 l 126 -145 "},"А":{"x_min":30.5625,"x_max":672.28125,"ha":703,"o":"m 345 704 l 272 257 l 422 257 l 345 704 m 515 -232 l 451 106 l 243 106 l 180 -232 l 30 -232 l 327 1351 q 335 1367 330 1359 q 350 1375 340 1375 q 364 1367 361 1375 q 370 1351 368 1359 l 672 -232 l 515 -232 "},"Ы":{"x_min":100,"x_max":899,"ha":1002,"o":"m 743 -232 l 743 1288 l 899 1288 l 899 -232 l 743 -232 m 256 672 q 347 645 304 664 q 540 476 473 590 q 608 210 608 362 q 540 -54 608 59 q 347 -224 473 -168 q 225 -254 294 -247 q 100 -263 156 -261 l 100 1288 l 256 1288 l 256 672 m 256 -72 q 342 -39 307 -68 q 400 30 377 -11 q 433 120 423 72 q 444 211 444 168 q 433 302 444 254 q 400 391 423 350 q 342 461 377 433 q 256 494 307 490 l 256 -72 "},"8":{"x_min":96,"x_max":548,"ha":643,"o":"m 419 306 q 418 368 419 329 q 408 447 417 408 q 380 514 399 486 q 323 543 360 543 q 264 515 285 543 q 236 448 244 487 q 227 370 228 409 q 227 306 227 330 q 227 238 227 279 q 234 160 227 198 q 262 95 242 122 q 322 68 282 68 q 383 95 363 68 q 411 159 403 122 q 419 237 419 197 q 419 306 419 279 m 419 802 q 416 857 419 826 q 403 915 413 888 q 374 961 392 942 q 322 980 355 980 q 271 961 290 980 q 243 917 252 943 q 230 861 233 891 q 228 808 228 831 q 229 750 228 783 q 239 688 230 718 q 266 640 247 659 q 322 621 286 621 q 376 639 356 621 q 405 686 396 658 q 416 746 414 715 q 419 802 419 777 m 548 304 q 540 192 548 248 q 509 91 532 136 q 442 17 485 45 q 330 -11 399 -11 q 209 14 255 -11 q 138 84 163 40 q 104 184 112 127 q 96 304 96 241 q 98 381 96 341 q 109 457 100 420 q 139 525 119 493 q 191 582 158 558 q 119 670 139 618 q 99 783 99 722 q 110 888 99 838 q 146 976 121 938 q 215 1035 172 1013 q 322 1058 258 1058 q 427 1035 384 1058 q 497 976 470 1013 q 535 888 523 938 q 547 783 547 838 q 526 670 547 722 q 453 582 506 618 q 506 525 487 558 q 534 457 525 493 q 545 381 543 420 q 548 304 548 341 "},"R":{"x_min":100,"x_max":600,"ha":661,"o":"m 447 619 q 433 738 447 677 q 394 855 419 798 q 334 963 369 912 q 256 1052 298 1013 l 255 215 q 332 295 297 248 q 393 396 367 343 q 433 507 419 449 q 447 619 447 565 m 600 634 q 549 370 600 494 q 404 143 498 247 l 589 -232 l 416 -232 l 279 51 l 256 37 l 256 -232 l 100 -232 l 100 1325 q 303 1222 211 1291 q 461 1061 395 1154 q 563 859 527 969 q 600 634 600 749 "},"o":{"x_min":97,"x_max":657,"ha":754,"o":"m 511 502 q 511 569 511 526 q 509 664 512 613 q 499 767 506 714 q 477 861 492 819 q 438 930 462 903 q 377 958 413 958 q 315 933 340 958 q 277 867 291 908 q 254 778 262 827 q 245 680 247 728 q 243 591 243 633 q 243 526 243 549 q 243 459 243 501 q 245 371 243 419 q 256 274 248 323 q 279 186 263 226 q 318 122 294 147 q 379 97 342 97 q 437 120 413 97 q 476 181 461 144 q 498 263 491 217 q 508 354 505 309 q 511 438 511 399 q 511 502 511 478 m 657 494 q 654 392 657 448 q 641 280 651 337 q 613 169 631 223 q 564 75 595 116 q 488 9 533 34 q 379 -16 443 -16 q 265 11 312 -16 q 186 85 217 39 q 137 189 155 131 q 110 309 119 248 q 99 430 101 371 q 97 538 97 489 q 99 642 97 585 q 111 758 102 699 q 139 873 120 817 q 189 972 158 929 q 266 1041 220 1015 q 377 1068 312 1068 q 494 1038 447 1068 q 572 962 541 1009 q 620 853 604 915 q 645 728 637 792 q 655 603 654 664 q 657 494 657 542 "},"5":{"x_min":118,"x_max":558,"ha":643,"o":"m 558 385 q 546 243 558 312 q 502 119 534 173 q 415 30 470 64 q 273 -3 359 -3 l 273 117 q 349 143 322 117 q 388 208 376 169 q 404 291 401 247 q 407 371 407 335 q 404 448 407 401 q 389 540 401 496 q 352 617 377 585 q 284 649 327 649 q 237 635 258 649 q 199 604 216 622 l 120 654 l 118 654 l 118 1048 l 476 1048 l 476 935 l 232 935 l 232 749 q 319 768 276 768 q 440 729 394 768 q 513 635 487 691 q 548 510 539 578 q 558 385 558 443 "},"Ѕ":{"x_min":61,"x_max":546,"ha":589,"o":"m 546 47 q 461 -162 546 -93 q 227 -232 377 -232 l 75 -232 l 75 -60 l 196 -60 q 271 -56 236 -60 q 333 -41 307 -53 q 373 -6 358 -29 q 388 55 388 16 q 363 144 388 90 q 303 267 339 199 q 224 413 266 335 q 145 574 182 491 q 85 742 109 658 q 61 906 61 826 q 97 1093 61 1016 q 199 1217 134 1169 q 350 1286 263 1265 q 539 1307 437 1307 l 539 1127 q 416 1120 475 1127 q 314 1091 358 1113 q 244 1024 270 1068 q 219 906 219 980 q 243 759 219 834 q 303 609 267 684 q 382 461 340 534 q 461 315 424 387 q 521 176 497 244 q 546 47 546 108 "},"õ":{"x_min":97,"x_max":657,"ha":754,"o":"m 511 502 q 511 569 511 526 q 509 664 512 613 q 499 767 506 714 q 477 861 492 819 q 438 930 462 903 q 377 958 413 958 q 315 933 340 958 q 277 867 291 908 q 254 778 262 827 q 245 680 247 728 q 243 591 243 633 q 243 526 243 549 q 243 459 243 501 q 245 371 243 419 q 256 274 248 323 q 279 186 263 226 q 318 122 294 147 q 379 97 342 97 q 437 120 413 97 q 476 181 461 144 q 498 263 491 217 q 508 354 505 309 q 511 438 511 399 q 511 502 511 478 m 657 494 q 654 392 657 448 q 641 280 651 337 q 613 169 631 223 q 564 75 595 116 q 488 9 533 34 q 379 -16 443 -16 q 265 11 312 -16 q 186 85 217 39 q 137 189 155 131 q 110 309 119 248 q 99 430 101 371 q 97 538 97 489 q 99 642 97 585 q 111 758 102 699 q 139 873 120 817 q 189 972 158 929 q 266 1041 220 1015 q 377 1068 312 1068 q 494 1038 447 1068 q 572 962 541 1009 q 620 853 604 915 q 645 728 637 792 q 655 603 654 664 q 657 494 657 542 m 557 1279 q 544 1224 553 1253 q 523 1170 536 1195 q 488 1128 509 1145 q 436 1110 466 1110 q 393 1121 415 1110 q 353 1143 372 1131 q 314 1165 333 1155 q 278 1176 294 1176 q 256 1169 265 1176 q 241 1151 247 1162 q 230 1128 234 1141 q 222 1106 226 1116 l 176 1106 q 190 1159 182 1130 q 212 1213 198 1188 q 246 1255 225 1238 q 298 1272 266 1272 q 338 1261 319 1272 q 375 1239 357 1251 q 412 1217 393 1227 q 453 1206 430 1206 q 478 1213 468 1206 q 494 1231 487 1220 q 505 1255 501 1242 q 514 1279 509 1267 l 557 1279 l 557 1279 "},",":{"x_min":40.828125,"x_max":224,"ha":267,"o":"m 224 55 q 211 -4 224 22 q 178 -53 199 -31 q 130 -91 157 -75 q 75 -119 103 -108 l 40 -84 q 83 -52 63 -70 q 114 -8 104 -33 q 65 19 85 -1 q 45 75 45 40 q 72 130 45 108 q 131 152 99 152 q 199 125 174 152 q 224 55 224 97 "},"d":{"x_min":114,"x_max":601,"ha":633,"o":"m 479 516 q 414 750 479 643 q 245 925 350 858 l 245 143 q 341 208 299 169 q 415 296 384 247 q 462 401 445 345 q 479 516 479 456 m 601 530 q 559 318 601 418 q 434 140 517 219 q 367 88 408 115 q 283 39 327 62 q 193 -1 238 16 q 114 -27 148 -19 l 114 1113 q 304 1023 215 1075 q 458 901 392 972 q 562 739 524 830 q 601 530 601 648 "},"\"":{"x_min":55.5,"x_max":334.5,"ha":390,"o":"m 178 977 q 177 949 178 962 q 174 920 176 936 l 140 570 l 93 570 l 59 920 q 56 950 58 936 q 55 980 55 965 q 67 1040 55 1012 q 117 1068 79 1068 q 149 1059 137 1068 q 168 1038 162 1051 q 176 1008 174 1024 q 178 977 178 993 m 334 976 q 333 948 334 962 q 331 920 333 934 l 297 570 l 250 570 l 216 920 q 213 950 215 936 q 212 980 212 965 q 224 1040 212 1012 q 274 1068 236 1068 q 306 1059 294 1068 q 324 1038 317 1051 q 332 1008 330 1024 q 334 976 334 991 "},"˙":{"x_min":125,"x_max":301,"ha":426,"o":"m 301 1192 q 275 1130 301 1156 q 213 1104 249 1104 q 151 1130 177 1104 q 125 1192 125 1156 q 151 1254 125 1228 q 213 1280 177 1280 q 275 1254 249 1280 q 301 1192 301 1228 "},"ê":{"x_min":114,"x_max":471.40625,"ha":540,"o":"m 114 0 l 114 1056 l 449 1056 l 449 943 l 245 943 l 245 627 l 449 627 l 449 514 l 245 514 l 245 113 l 471 113 l 471 0 l 114 0 m 435 1099 l 285 1236 l 136 1097 l 114 1110 l 269 1363 l 298 1363 l 454 1112 l 435 1099 "},"„":{"x_min":10,"x_max":402,"ha":417,"o":"m 193 55 q 180 -4 193 22 q 147 -53 168 -31 q 99 -91 126 -75 q 44 -119 72 -108 l 10 -84 q 52 -52 32 -70 q 83 -8 73 -33 q 34 19 54 -1 q 14 75 14 40 q 41 130 14 108 q 100 152 68 152 q 168 125 143 152 q 193 55 193 97 m 402 55 q 389 -4 402 22 q 356 -53 377 -31 q 308 -91 335 -75 q 253 -119 281 -108 l 219 -84 q 261 -52 241 -70 q 292 -8 282 -33 q 243 19 263 -1 q 223 75 223 40 q 250 130 223 108 q 309 152 277 152 q 377 125 352 152 q 402 55 402 97 "},"ч":{"x_min":53,"x_max":478,"ha":592,"o":"m 347 1056 l 478 1056 l 478 0 l 347 0 l 347 429 q 306 436 326 432 q 270 447 285 440 q 184 492 223 464 q 115 558 144 521 q 69 644 86 596 q 53 748 53 691 l 53 1056 l 184 1056 l 184 749 q 195 678 184 712 q 226 618 206 644 q 277 574 247 592 q 347 553 308 557 l 347 1056 "},"Â":{"x_min":30.5625,"x_max":672.28125,"ha":703,"o":"m 345 704 l 272 257 l 422 257 l 345 704 m 515 -232 l 451 106 l 243 106 l 180 -232 l 30 -232 l 327 1351 q 335 1367 330 1359 q 350 1375 340 1375 q 364 1367 361 1375 q 370 1351 368 1359 l 672 -232 l 515 -232 m 496 1353 l 346 1490 l 197 1351 l 175 1364 l 330 1617 l 359 1617 l 515 1366 l 496 1353 "},"Í":{"x_min":104,"x_max":488.921875,"ha":364,"o":"m 104 -232 l 104 1288 l 260 1288 l 260 -232 l 104 -232 m 488 1537 q 471 1499 488 1518 q 431 1464 454 1480 q 383 1434 408 1447 q 344 1412 358 1421 l 220 1339 l 138 1339 l 262 1462 q 297 1499 276 1476 q 341 1543 318 1522 q 387 1579 363 1564 q 431 1595 411 1595 q 470 1578 452 1595 q 488 1537 488 1561 "},"´":{"x_min":138.90625,"x_max":488.921875,"ha":571,"o":"m 488 1099 q 471 1061 488 1080 q 431 1026 454 1042 q 383 996 408 1009 q 344 974 358 983 l 220 901 l 138 901 l 262 1024 q 297 1061 276 1038 q 341 1105 318 1084 q 387 1141 363 1126 q 431 1157 411 1157 q 470 1140 452 1157 q 488 1099 488 1123 "},"Ú":{"x_min":100,"x_max":674.921875,"ha":767,"o":"m 100 -232 l 100 1288 l 256 1288 l 256 -74 l 511 -74 l 511 1288 l 667 1288 l 667 -232 l 100 -232 m 674 1543 q 657 1505 674 1524 q 617 1470 640 1486 q 569 1440 594 1453 q 530 1418 544 1427 l 406 1345 l 324 1345 l 448 1468 q 483 1505 462 1482 q 527 1549 504 1528 q 573 1585 549 1570 q 617 1601 597 1601 q 656 1584 638 1601 q 674 1543 674 1567 "},"Ý":{"x_min":6.9375,"x_max":657,"ha":663,"o":"m 272 -232 l 118 -232 l 251 295 l 6 1288 l 161 1288 l 325 589 l 502 1288 l 657 1288 l 272 -232 m 613 1520 q 596 1482 613 1501 q 556 1447 579 1463 q 508 1417 533 1430 q 469 1395 483 1404 l 345 1322 l 263 1322 l 387 1445 q 422 1482 401 1459 q 466 1526 443 1505 q 512 1562 488 1547 q 556 1578 536 1578 q 595 1561 577 1578 q 613 1520 613 1544 "},"И":{"x_min":100,"x_max":654,"ha":754,"o":"m 100 -232 l 100 1288 l 254 1288 l 254 720 l 654 1340 l 654 -232 l 498 -232 l 498 813 l 254 424 l 254 -232 l 100 -232 "},"р":{"x_min":114,"x_max":540,"ha":578,"o":"m 416 613 q 402 700 416 658 q 366 778 389 741 q 311 846 342 815 q 245 901 280 877 l 244 319 q 310 374 279 341 q 365 446 342 406 q 402 529 388 486 q 416 613 416 572 m 540 618 q 518 477 540 543 q 458 355 497 411 q 366 255 420 300 q 245 180 311 211 l 245 0 l 114 0 l 114 1080 q 280 1025 202 1063 q 415 927 358 986 q 506 791 473 869 q 540 618 540 713 "},"Ω":{"x_min":0,"x_max":0,"ha":695},"т":{"x_min":61.09375,"x_max":519.90625,"ha":581,"o":"m 356 943 l 356 0 l 225 0 l 225 943 l 61 943 l 61 1056 l 519 1056 l 519 943 l 356 943 "},"П":{"x_min":100,"x_max":667,"ha":767,"o":"m 667 1288 l 667 -232 l 511 -232 l 511 1130 l 256 1130 l 256 -232 l 100 -232 l 100 1288 l 667 1288 "},"Ö":{"x_min":68,"x_max":740,"ha":808,"o":"m 564 524 q 564 624 564 563 q 561 755 564 687 q 549 893 558 824 q 522 1018 540 963 q 476 1109 505 1074 q 404 1144 447 1144 q 331 1109 360 1144 q 285 1018 302 1074 q 258 893 267 963 q 246 755 249 824 q 244 624 244 687 q 244 524 244 563 q 244 423 244 485 q 247 293 244 361 q 260 155 250 224 q 287 30 269 85 q 334 -60 305 -25 q 406 -95 363 -95 q 478 -60 449 -95 q 524 30 506 -25 q 550 155 541 85 q 561 293 558 224 q 564 423 565 361 q 564 524 564 484 m 740 524 q 726 241 740 362 q 688 33 712 120 q 633 -109 665 -53 q 564 -198 601 -165 q 487 -243 527 -231 q 406 -256 447 -256 q 326 -243 366 -256 q 248 -198 285 -231 q 177 -110 211 -165 q 120 32 144 -54 q 81 240 95 119 q 68 524 68 362 q 97 920 68 767 q 175 1158 127 1073 q 283 1273 223 1242 q 404 1304 344 1304 q 524 1273 463 1304 q 632 1158 584 1242 q 710 920 680 1073 q 740 524 740 767 m 367 1407 q 348 1364 367 1382 q 305 1346 330 1346 q 261 1364 279 1346 q 243 1407 243 1382 q 261 1451 243 1433 q 305 1470 279 1470 q 348 1451 330 1470 q 367 1407 367 1433 m 555 1407 q 536 1364 555 1382 q 492 1346 518 1346 q 448 1364 466 1346 q 430 1407 430 1382 q 448 1451 430 1433 q 492 1470 466 1470 q 536 1451 518 1470 q 555 1407 555 1433 "},"z":{"x_min":62.5,"x_max":450.03125,"ha":517,"o":"m 222 113 l 440 113 l 440 0 l 62 0 l 295 943 l 100 943 l 100 1056 l 450 1056 l 222 113 "},"™":{"x_min":8.09375,"x_max":775,"ha":833,"o":"m 201 1044 l 201 752 l 122 752 l 122 1044 l 8 1044 l 8 1108 l 313 1108 l 313 1044 l 201 1044 m 700 752 l 700 1007 l 590 752 l 546 752 l 442 1007 l 442 752 l 363 752 l 363 1108 l 476 1108 l 566 882 l 663 1108 l 775 1108 l 775 752 l 700 752 "},"ã":{"x_min":51.390625,"x_max":586.15625,"ha":638,"o":"m 315 621 l 251 342 l 379 342 l 315 621 m 455 0 l 401 234 l 229 234 l 176 0 l 51 0 l 300 1100 q 306 1112 301 1107 q 318 1117 311 1117 q 329 1111 327 1117 q 334 1099 331 1106 l 586 0 l 455 0 m 505 1333 q 492 1278 501 1307 q 471 1224 484 1249 q 436 1182 457 1199 q 384 1164 414 1164 q 341 1175 363 1164 q 301 1197 320 1185 q 262 1219 281 1209 q 226 1230 242 1230 q 204 1223 213 1230 q 189 1205 195 1216 q 178 1182 182 1195 q 170 1160 174 1170 l 124 1160 q 138 1213 130 1184 q 160 1267 146 1242 q 194 1309 173 1292 q 246 1326 214 1326 q 286 1315 267 1326 q 323 1293 305 1305 q 360 1271 341 1281 q 401 1260 378 1260 q 426 1267 416 1260 q 442 1285 435 1274 q 453 1309 449 1296 q 462 1333 457 1321 l 505 1333 l 505 1333 "},"æ":{"x_min":12.140625,"x_max":740.40625,"ha":810,"o":"m 383 835 l 238 341 l 383 341 l 383 835 m 383 0 l 383 233 l 206 233 l 137 0 l 12 0 l 344 1056 l 718 1056 l 718 943 l 514 943 l 514 393 l 718 393 l 718 280 l 514 280 l 514 113 l 740 113 l 740 0 l 383 0 "},"É":{"x_min":100,"x_max":592.921875,"ha":601,"o":"m 100 -232 l 100 1288 l 503 1288 l 503 1137 l 256 1137 l 256 672 l 503 672 l 503 521 l 256 521 l 256 -81 l 529 -81 l 529 -232 l 100 -232 m 592 1537 q 575 1499 592 1518 q 535 1464 558 1480 q 487 1434 512 1447 q 448 1412 462 1421 l 324 1339 l 242 1339 l 366 1462 q 401 1499 380 1476 q 445 1543 422 1522 q 491 1579 467 1564 q 535 1595 515 1595 q 574 1578 556 1595 q 592 1537 592 1561 "},"и":{"x_min":114,"x_max":576,"ha":690,"o":"m 114 0 l 114 1056 l 245 1056 l 244 661 l 576 1092 l 576 0 l 445 0 l 445 726 l 245 464 l 245 0 l 114 0 "},"~":{"x_min":30.5625,"x_max":525.046875,"ha":556,"o":"m 525 1118 q 505 1056 516 1085 q 477 1002 494 1026 q 433 964 459 978 q 369 949 406 949 q 314 960 341 949 q 261 982 287 970 q 211 1004 236 994 q 163 1015 186 1015 q 117 992 131 1015 q 90 945 102 970 l 30 945 q 51 1005 38 976 q 81 1058 63 1035 q 126 1096 100 1081 q 190 1111 152 1111 q 241 1100 216 1111 q 290 1078 266 1090 q 338 1056 313 1066 q 390 1045 362 1045 q 420 1051 408 1045 q 441 1067 433 1058 q 455 1090 450 1077 q 468 1118 461 1104 l 525 1118 l 525 1118 "},"³":{"x_min":76.3125,"x_max":347,"ha":463,"o":"m 347 674 q 340 599 347 637 q 315 533 333 562 q 268 486 298 504 q 194 468 238 468 l 194 531 q 234 545 219 531 q 256 580 249 559 q 265 624 263 601 q 268 667 268 648 q 265 710 268 684 q 256 758 263 735 q 236 798 249 781 q 198 815 222 815 q 172 808 183 815 q 151 790 161 801 l 108 817 l 216 993 l 76 993 l 76 1056 l 327 1056 l 327 1039 l 227 875 q 288 854 265 875 q 324 802 310 833 q 342 737 337 772 q 347 674 347 702 "},"¡":{"x_min":73,"x_max":242.453125,"ha":314,"o":"m 74 0 l 114 813 l 197 813 l 227 0 l 74 0 m 242 983 q 218 923 242 947 q 157 899 193 899 q 97 923 121 899 q 73 983 73 947 q 97 1043 73 1019 q 157 1068 121 1068 q 218 1043 193 1068 q 242 983 242 1019 "},"[":{"x_min":114,"x_max":317.71875,"ha":444,"o":"m 114 -145 l 114 1056 l 317 1056 l 317 956 l 233 956 l 233 -46 l 317 -46 l 317 -145 l 114 -145 "},"К":{"x_min":100,"x_max":639.359375,"ha":639,"o":"m 637 1288 l 383 580 l 639 -232 l 472 -232 l 256 472 l 256 -232 l 100 -232 l 100 1288 l 256 1288 l 256 686 l 468 1288 l 637 1288 "},"%":{"x_min":61,"x_max":763,"ha":824,"o":"m 674 232 q 657 377 674 337 q 614 417 641 417 q 569 377 584 417 q 554 232 554 337 q 558 143 554 179 q 569 86 562 108 q 587 56 576 65 q 614 47 598 47 q 639 56 627 47 q 657 86 650 65 q 669 143 665 108 q 674 232 674 179 m 270 713 q 254 858 270 819 q 210 897 239 897 q 184 887 196 897 q 166 858 173 878 q 154 801 158 837 q 150 713 150 766 q 166 567 150 606 q 210 527 182 527 q 254 567 239 527 q 270 713 270 606 m 763 232 q 726 38 763 97 q 614 -21 689 -21 q 500 38 537 -21 q 464 232 464 97 q 500 424 464 365 q 614 484 537 484 q 726 424 689 484 q 763 232 763 365 m 205 -29 l 119 5 l 611 963 l 694 929 l 205 -29 m 360 713 q 323 520 360 579 q 209 461 286 461 q 97 520 134 461 q 61 713 61 579 q 97 904 61 845 q 209 964 134 964 q 323 904 286 964 q 360 713 360 845 "},"P":{"x_min":100,"x_max":611,"ha":667,"o":"m 462 654 q 446 772 462 713 q 404 883 431 830 q 339 983 377 936 q 256 1066 301 1030 l 255 229 q 338 312 301 262 q 403 419 376 362 q 446 536 431 476 q 462 654 462 597 m 611 656 q 588 465 611 558 q 520 293 565 373 q 409 145 476 212 q 256 29 343 77 l 256 -232 l 100 -232 l 100 1325 q 317 1235 222 1297 q 477 1086 412 1173 q 576 888 542 998 q 611 656 611 779 "},"∏":{"x_min":0,"x_max":0,"ha":695},"_":{"x_min":0,"x_max":694.5,"ha":695,"o":"m 0 -254 l 0 -154 l 694 -154 l 694 -254 l 0 -254 "},"ñ":{"x_min":114,"x_max":576,"ha":690,"o":"m 445 0 l 445 463 l 245 726 l 245 0 l 114 0 l 114 1091 l 445 661 l 445 1055 l 576 1055 l 576 0 l 445 0 m 536 1273 q 523 1218 532 1247 q 502 1164 515 1189 q 467 1122 488 1139 q 415 1104 445 1104 q 372 1115 394 1104 q 332 1137 351 1125 q 293 1159 312 1149 q 257 1170 273 1170 q 235 1163 244 1170 q 220 1145 226 1156 q 209 1122 213 1135 q 201 1100 205 1110 l 155 1100 q 169 1153 161 1124 q 191 1207 177 1182 q 225 1249 204 1232 q 277 1266 245 1266 q 317 1255 298 1266 q 354 1233 336 1245 q 391 1211 372 1221 q 432 1200 409 1200 q 457 1207 447 1200 q 473 1225 466 1214 q 484 1249 480 1236 q 493 1273 488 1261 l 536 1273 l 536 1273 "},"‚":{"x_min":9.828125,"x_max":193,"ha":208,"o":"m 193 55 q 180 -4 193 22 q 147 -53 168 -31 q 99 -91 126 -75 q 44 -119 72 -108 l 9 -84 q 52 -52 32 -70 q 83 -8 73 -33 q 34 19 54 -1 q 14 75 14 40 q 41 130 14 108 q 100 152 68 152 q 168 125 143 152 q 193 55 193 97 "},"Æ":{"x_min":10.515625,"x_max":959.625,"ha":1032,"o":"m 530 972 l 321 256 l 530 256 l 530 972 m 530 -232 l 530 105 l 275 105 l 175 -232 l 10 -232 l 488 1288 l 933 1288 l 933 1137 l 686 1137 l 686 329 l 933 329 l 933 178 l 686 178 l 686 -81 l 959 -81 l 959 -232 l 530 -232 "},"ы":{"x_min":114,"x_max":828,"ha":942,"o":"m 697 0 l 697 1056 l 828 1056 l 828 0 l 697 0 m 245 626 q 285 619 265 623 q 321 608 306 615 q 407 563 368 591 q 476 497 447 534 q 522 411 505 459 q 539 306 539 363 q 522 202 539 249 q 476 116 505 154 q 407 50 447 79 q 320 5 368 22 q 273 -7 300 -2 q 218 -15 247 -12 q 163 -19 190 -18 q 114 -21 136 -21 l 114 1056 l 245 1056 l 245 626 m 245 111 q 312 132 283 115 q 361 176 341 150 q 391 236 381 202 q 401 306 401 270 q 391 377 401 343 q 361 437 381 411 q 312 481 341 463 q 245 502 283 498 l 245 111 "},"ª":{"x_min":72.234375,"x_max":393.09375,"ha":465,"o":"m 230 788 l 191 620 l 269 620 l 230 788 m 315 417 l 281 555 l 179 555 l 147 417 l 72 417 l 220 1076 q 231 1086 223 1086 q 241 1075 238 1086 l 393 417 l 315 417 "},"ї":{"x_min":114,"x_max":426,"ha":358,"o":"m 114 0 l 114 1056 l 245 1056 l 245 0 l 114 0 m 238 1171 q 219 1128 238 1146 q 176 1110 201 1110 q 132 1128 150 1110 q 114 1171 114 1146 q 132 1215 114 1197 q 176 1234 150 1234 q 219 1215 201 1234 q 238 1171 238 1197 m 426 1171 q 407 1128 426 1146 q 363 1110 389 1110 q 319 1128 337 1110 q 301 1171 301 1146 q 319 1215 301 1197 q 363 1234 337 1234 q 407 1215 389 1234 q 426 1171 426 1197 "},"Œ":{"x_min":68,"x_max":999.625,"ha":1072,"o":"m 570 902 q 564 965 570 924 q 544 1046 558 1006 q 504 1114 529 1085 q 439 1144 478 1144 q 359 1109 392 1144 q 305 1019 327 1074 q 271 896 284 964 q 253 758 259 827 q 245 627 246 689 q 244 525 244 566 q 245 421 244 484 q 253 290 246 359 q 271 152 259 221 q 305 28 284 84 q 359 -60 327 -26 q 439 -95 392 -95 q 504 -65 478 -95 q 544 5 529 -35 q 564 87 558 46 q 570 150 570 128 l 570 902 m 570 -232 l 570 -150 q 508 -224 546 -192 q 419 -256 470 -256 q 290 -219 345 -256 q 197 -120 235 -182 q 133 21 158 -58 q 93 187 108 101 q 73 362 79 274 q 68 526 68 449 q 73 689 68 602 q 93 862 79 776 q 133 1029 108 949 q 196 1169 158 1109 q 290 1267 235 1230 q 418 1304 345 1304 q 508 1275 470 1304 q 570 1205 546 1246 l 570 1287 l 973 1287 l 973 1136 l 726 1136 l 726 329 l 973 329 l 973 178 l 726 178 l 726 -81 l 999 -81 l 999 -232 l 570 -232 "},"T":{"x_min":0.09375,"x_max":535.296875,"ha":535,"o":"m 345 1137 l 345 -232 l 189 -232 l 189 1137 l 0 1137 l 0 1288 l 535 1288 l 535 1137 l 345 1137 "},"š":{"x_min":81,"x_max":484,"ha":563,"o":"m 484 188 q 465 100 484 136 q 412 42 446 65 q 331 9 378 19 q 229 0 285 0 l 91 0 l 91 118 l 205 118 q 256 119 229 118 q 304 128 282 120 q 338 152 325 136 q 352 201 352 169 q 331 266 352 229 q 281 348 311 304 q 216 443 251 393 q 151 549 181 494 q 101 664 121 605 q 81 786 81 723 q 97 883 81 840 q 142 958 114 926 q 209 1014 171 991 q 292 1049 247 1037 q 380 1064 332 1061 q 478 1068 428 1068 l 478 949 q 384 944 432 949 q 298 921 336 938 q 236 870 260 904 q 212 781 212 837 q 232 682 212 731 q 282 583 252 633 q 348 484 313 533 q 413 385 382 434 q 463 286 443 336 q 484 188 484 237 m 307 1092 l 278 1092 l 123 1342 l 142 1356 l 292 1218 l 441 1357 l 463 1343 l 307 1092 "},"є":{"x_min":68,"x_max":498.921875,"ha":608,"o":"m 498 958 q 314 823 391 908 q 210 627 236 739 l 414 627 l 414 514 l 199 514 q 224 380 200 443 q 287 265 247 317 q 380 171 326 213 q 494 96 433 128 l 494 -24 q 324 51 401 0 q 189 173 246 102 q 100 331 132 244 q 68 516 68 419 q 137 792 68 667 q 330 1002 207 918 q 412 1047 368 1029 q 498 1082 455 1066 l 498 958 l 498 958 "},"Þ":{"x_min":100,"x_max":611,"ha":667,"o":"m 462 541 q 447 662 462 601 q 406 778 432 722 q 341 882 379 835 q 256 961 303 929 l 255 109 q 341 190 302 140 q 406 300 380 240 q 447 422 432 359 q 462 541 462 484 m 611 544 q 521 184 611 345 q 256 -79 432 23 l 256 -232 l 100 -232 l 100 1288 l 256 1288 l 256 1154 q 411 1041 344 1105 q 522 898 477 976 q 588 731 566 821 q 611 544 611 641 "},"j":{"x_min":23.09375,"x_max":318,"ha":432,"o":"m 318 281 q 301 185 318 230 q 255 103 284 140 q 186 38 226 66 q 99 -5 146 10 q 64 -17 84 -12 q 23 -24 43 -21 l 23 99 q 92 121 61 103 q 143 165 123 138 q 175 225 164 191 q 187 295 187 259 l 187 1056 l 318 1056 l 318 281 "},"1":{"x_min":254,"x_max":385,"ha":643,"o":"m 254 0 l 254 1047 l 385 1047 l 385 0 l 254 0 "},"›":{"x_min":66.671875,"x_max":377.8125,"ha":419,"o":"m 66 200 l 66 340 l 273 524 l 66 706 l 66 847 l 377 562 l 377 484 l 66 200 "},"<":{"x_min":100.015625,"x_max":713.953125,"ha":833,"o":"m 100 484 l 100 562 l 713 847 l 713 734 l 254 522 l 713 312 l 713 200 l 100 484 "},"Ц":{"x_min":100,"x_max":762,"ha":863,"o":"m 762 -66 l 762 -419 l 638 -419 l 638 -232 l 100 -232 l 100 1288 l 256 1288 l 256 -74 l 511 -74 l 511 1288 l 667 1288 l 667 -66 l 762 -66 "},"t":{"x_min":61.09375,"x_max":519.90625,"ha":581,"o":"m 356 943 l 356 0 l 225 0 l 225 943 l 61 943 l 61 1056 l 519 1056 l 519 943 l 356 943 "},"¬":{"x_min":93.125,"x_max":714,"ha":833,"o":"m 614 317 l 614 572 l 93 572 l 93 672 l 714 672 l 714 317 l 614 317 "},"ù":{"x_min":113.953125,"x_max":586,"ha":700,"o":"m 114 0 l 114 1056 l 245 1056 l 245 113 l 455 113 l 455 1056 l 586 1056 l 586 0 l 114 0 m 382 1097 l 258 1170 q 218 1192 243 1179 q 171 1222 194 1205 q 131 1257 148 1238 q 113 1295 113 1276 q 132 1336 113 1319 q 170 1353 150 1353 q 215 1337 191 1353 q 261 1301 238 1322 q 304 1257 284 1280 q 340 1220 325 1234 l 463 1097 l 382 1097 "},"Ф":{"x_min":53,"x_max":921,"ha":974,"o":"m 409 -75 q 254 40 321 -26 q 143 188 187 108 q 75 361 98 269 q 53 552 53 454 q 76 746 53 654 q 145 918 100 838 q 256 1061 190 997 q 409 1166 322 1125 l 409 1325 l 565 1325 l 565 1166 q 716 1061 649 1125 q 828 918 783 997 q 897 746 873 838 q 921 552 921 654 q 898 361 921 454 q 830 188 875 269 q 719 40 786 108 q 565 -75 652 -26 l 565 -232 l 409 -232 l 409 -75 m 202 549 q 217 432 202 493 q 260 315 232 372 q 325 208 288 258 q 409 124 363 158 l 409 962 q 325 879 363 926 q 259 779 286 831 q 217 668 232 726 q 202 549 202 609 m 772 549 q 756 668 772 609 q 714 779 741 726 q 649 879 687 831 q 565 962 610 926 l 564 124 q 648 208 610 158 q 713 315 685 258 q 756 432 741 372 q 772 549 772 493 "},"ï":{"x_min":114,"x_max":426,"ha":358,"o":"m 114 0 l 114 1056 l 245 1056 l 245 0 l 114 0 m 238 1171 q 219 1128 238 1146 q 176 1110 201 1110 q 132 1128 150 1110 q 114 1171 114 1146 q 132 1215 114 1197 q 176 1234 150 1234 q 219 1215 201 1234 q 238 1171 238 1197 m 426 1171 q 407 1128 426 1146 q 363 1110 389 1110 q 319 1128 337 1110 q 301 1171 301 1146 q 319 1215 301 1197 q 363 1234 337 1234 q 407 1215 389 1234 q 426 1171 426 1197 "},"Ò":{"x_min":68,"x_max":740,"ha":808,"o":"m 564 524 q 564 624 564 563 q 561 755 564 687 q 549 893 558 824 q 522 1018 540 963 q 476 1109 505 1074 q 404 1144 447 1144 q 331 1109 360 1144 q 285 1018 302 1074 q 258 893 267 963 q 246 755 249 824 q 244 624 244 687 q 244 524 244 563 q 244 423 244 485 q 247 293 244 361 q 260 155 250 224 q 287 30 269 85 q 334 -60 305 -25 q 406 -95 363 -95 q 478 -60 449 -95 q 524 30 506 -25 q 550 155 541 85 q 561 293 558 224 q 564 423 565 361 q 564 524 564 484 m 740 524 q 726 241 740 362 q 688 33 712 120 q 633 -109 665 -53 q 564 -198 601 -165 q 487 -243 527 -231 q 406 -256 447 -256 q 326 -243 366 -256 q 248 -198 285 -231 q 177 -110 211 -165 q 120 32 144 -54 q 81 240 95 119 q 68 524 68 362 q 97 920 68 767 q 175 1158 127 1073 q 283 1273 223 1242 q 404 1304 344 1304 q 524 1273 463 1304 q 632 1158 584 1242 q 710 920 680 1073 q 740 524 740 767 m 367 1344 l 243 1417 q 203 1439 228 1426 q 156 1469 179 1452 q 116 1504 133 1485 q 98 1542 98 1523 q 117 1583 98 1566 q 155 1600 135 1600 q 200 1584 176 1600 q 246 1548 223 1569 q 289 1504 269 1527 q 325 1467 310 1481 l 448 1344 l 367 1344 "},"О":{"x_min":68,"x_max":740,"ha":808,"o":"m 564 524 q 564 624 564 563 q 561 755 564 687 q 549 893 558 824 q 522 1018 540 963 q 476 1109 505 1074 q 404 1144 447 1144 q 331 1109 360 1144 q 285 1018 302 1074 q 258 893 267 963 q 246 755 249 824 q 244 624 244 687 q 244 524 244 563 q 244 423 244 485 q 247 293 244 361 q 260 155 250 224 q 287 30 269 85 q 334 -60 305 -25 q 406 -95 363 -95 q 478 -60 449 -95 q 524 30 506 -25 q 550 155 541 85 q 561 293 558 224 q 564 423 565 361 q 564 524 564 484 m 740 524 q 726 241 740 362 q 688 33 712 120 q 633 -109 665 -53 q 564 -198 601 -165 q 487 -243 527 -231 q 406 -256 447 -256 q 326 -243 366 -256 q 248 -198 285 -231 q 177 -110 211 -165 q 120 32 144 -54 q 81 240 95 119 q 68 524 68 362 q 97 920 68 767 q 175 1158 127 1073 q 283 1273 223 1242 q 404 1304 344 1304 q 524 1273 463 1304 q 632 1158 584 1242 q 710 920 680 1073 q 740 524 740 767 "},"&":{"x_min":80.109375,"x_max":607.078125,"ha":732,"o":"m 288 459 q 256 405 271 436 q 230 341 241 375 q 212 275 219 308 q 205 212 205 241 q 210 173 205 193 q 226 138 216 154 q 253 112 237 122 q 291 103 269 103 q 351 114 319 103 q 403 146 384 126 l 288 459 m 378 915 q 365 951 378 935 q 331 967 352 967 q 287 947 301 967 q 273 900 273 928 q 288 821 273 864 q 320 746 303 778 q 338 784 329 762 q 357 828 348 805 q 372 874 366 851 q 378 915 378 897 m 607 426 q 587 286 607 351 q 532 155 568 220 l 590 0 l 461 0 l 443 43 q 370 8 407 20 q 288 -4 333 -4 q 130 57 181 -4 q 80 221 80 118 q 94 327 80 276 q 132 425 109 378 q 185 518 156 472 q 244 608 214 564 q 215 676 233 637 q 182 756 198 715 q 155 837 166 797 q 144 906 144 876 q 159 974 144 943 q 199 1025 174 1004 q 257 1058 224 1046 q 326 1070 290 1070 q 390 1059 359 1070 q 446 1029 422 1049 q 485 981 470 1010 q 500 917 500 953 q 485 841 500 885 q 450 751 470 797 q 407 660 429 704 q 370 587 385 616 l 469 323 q 479 374 476 348 q 482 426 482 400 q 472 532 482 479 q 439 635 462 586 l 565 635 q 595 532 584 585 q 607 426 607 480 "},"˝":{"x_min":90.28125,"x_max":669.5,"ha":700,"o":"m 440 1309 q 422 1273 440 1291 q 382 1237 405 1254 q 334 1207 359 1220 q 295 1184 309 1193 l 172 1111 l 90 1111 l 213 1234 q 248 1271 227 1248 q 291 1315 269 1294 q 337 1351 313 1336 q 381 1367 361 1367 q 422 1349 405 1367 q 440 1309 440 1332 m 669 1309 q 652 1273 669 1291 q 610 1237 634 1254 q 561 1207 586 1220 q 523 1184 537 1193 l 401 1111 l 318 1111 l 441 1234 q 475 1271 455 1248 q 518 1315 495 1294 q 565 1351 541 1336 q 611 1367 588 1367 q 654 1349 638 1367 q 669 1309 669 1332 "},"I":{"x_min":104,"x_max":260,"ha":364,"o":"m 104 -232 l 104 1288 l 260 1288 l 260 -232 l 104 -232 "},"G":{"x_min":51,"x_max":591,"ha":681,"o":"m 591 -267 q 189 46 327 -154 q 51 524 51 248 q 86 776 51 652 q 189 1006 121 899 q 355 1195 256 1112 q 584 1325 454 1277 l 584 1156 q 427 1052 497 1116 q 308 905 357 987 q 232 729 259 823 q 205 537 205 635 q 219 387 205 460 q 263 246 234 313 q 336 122 292 180 q 440 20 380 65 l 440 521 l 322 521 l 322 672 l 591 672 l 591 -267 l 591 -267 "},"`":{"x_min":81.953125,"x_max":431.984375,"ha":571,"o":"m 350 1111 l 226 1184 q 186 1206 211 1193 q 139 1236 162 1219 q 99 1271 116 1252 q 81 1309 81 1290 q 100 1350 81 1333 q 138 1367 118 1367 q 183 1351 159 1367 q 229 1315 206 1336 q 272 1271 252 1294 q 308 1234 293 1248 l 431 1111 l 350 1111 "},"·":{"x_min":49,"x_max":218,"ha":267,"o":"m 218 523 q 193 463 218 487 q 133 439 169 439 q 73 463 97 439 q 49 523 49 487 q 73 583 49 559 q 133 608 97 608 q 193 583 169 608 q 218 523 218 559 "},"¿":{"x_min":31,"x_max":442.296875,"ha":451,"o":"m 442 164 q 414 75 435 109 q 365 20 393 40 q 303 -7 336 0 q 236 -15 270 -15 q 146 0 185 -15 q 81 45 107 16 q 43 111 56 73 q 31 190 31 148 q 61 330 31 265 q 128 456 92 396 q 195 575 164 516 q 225 694 225 633 q 220 755 225 725 q 208 815 215 786 l 320 815 q 339 698 339 757 q 310 565 339 629 q 245 439 281 501 q 181 313 210 376 q 152 182 152 250 q 173 108 152 139 q 238 78 195 78 q 295 99 270 78 q 321 171 321 121 l 442 164 l 442 164 m 354 983 q 329 923 354 947 q 269 899 305 899 q 209 923 233 899 q 185 983 185 947 q 209 1043 185 1019 q 269 1068 233 1068 q 329 1043 305 1068 q 354 983 354 1019 "},"ý":{"x_min":76.390625,"x_max":645.921875,"ha":667,"o":"m 293 0 l 163 0 l 266 340 l 76 1056 l 206 1056 l 336 568 l 484 1056 l 613 1056 l 293 0 m 645 1288 q 628 1250 645 1269 q 588 1215 611 1231 q 540 1185 565 1198 q 501 1163 515 1172 l 377 1090 l 295 1090 l 419 1213 q 454 1250 433 1227 q 498 1294 475 1273 q 544 1330 520 1315 q 588 1346 568 1346 q 627 1329 609 1346 q 645 1288 645 1312 "},"º":{"x_min":103,"x_max":439,"ha":542,"o":"m 351 721 q 351 787 351 743 q 344 879 351 833 q 320 960 337 925 q 271 995 304 995 q 221 962 237 995 q 197 886 204 929 q 191 800 191 843 q 191 735 191 757 q 191 669 191 712 q 199 584 192 626 q 222 509 206 541 q 272 478 239 478 q 319 507 304 478 q 342 578 335 537 q 350 658 349 618 q 351 721 351 698 m 439 715 q 434 621 439 673 q 412 521 429 568 q 362 442 395 475 q 272 410 329 410 q 177 446 211 410 q 126 533 143 482 q 106 641 109 585 q 103 741 103 698 q 107 839 103 785 q 127 943 111 894 q 178 1025 144 991 q 271 1060 212 1060 q 367 1022 333 1060 q 417 930 401 985 q 436 817 433 876 q 439 715 439 758 "},"∞":{"x_min":0,"x_max":0,"ha":342},"я":{"x_min":58,"x_max":475,"ha":594,"o":"m 58 601 q 92 769 58 690 q 183 910 126 847 q 315 1016 240 972 q 475 1081 391 1060 l 475 0 l 344 0 l 344 177 l 325 187 l 210 0 l 66 0 l 224 254 q 103 411 149 322 q 58 601 58 500 m 184 594 q 196 511 184 553 q 230 432 209 469 q 281 366 252 396 q 344 316 310 336 l 344 890 q 281 832 310 865 q 230 760 252 798 q 196 678 209 721 q 184 594 184 636 "},"Ё":{"x_min":100,"x_max":529.625,"ha":601,"o":"m 270 1397 q 251 1354 270 1372 q 208 1336 233 1336 q 164 1354 182 1336 q 146 1397 146 1372 q 164 1441 146 1423 q 208 1460 182 1460 q 251 1441 233 1460 q 270 1397 270 1423 m 458 1397 q 440 1354 458 1372 q 395 1336 422 1336 q 351 1354 369 1336 q 333 1397 333 1372 q 351 1441 333 1423 q 395 1460 369 1460 q 440 1441 422 1460 q 458 1397 458 1423 m 100 -232 l 100 1288 l 503 1288 l 503 1137 l 256 1137 l 256 672 l 503 672 l 503 521 l 256 521 l 256 -81 l 529 -81 l 529 -232 l 100 -232 "},";":{"x_min":40.828125,"x_max":224,"ha":267,"o":"m 224 55 q 211 -4 224 22 q 178 -53 199 -31 q 130 -91 157 -75 q 75 -119 103 -108 l 40 -84 q 83 -52 63 -70 q 114 -8 104 -33 q 65 19 86 -1 q 45 75 45 40 q 72 130 45 108 q 131 152 99 152 q 199 125 174 152 q 224 55 224 97 m 217 638 q 192 578 217 602 q 132 554 168 554 q 72 578 96 554 q 48 638 48 602 q 72 698 48 674 q 132 723 96 723 q 192 698 168 723 q 217 638 217 674 "},"Г":{"x_min":100,"x_max":503.234375,"ha":511,"o":"m 256 -232 l 100 -232 l 100 1288 l 503 1288 l 503 1137 l 256 1137 l 256 -232 "},"6":{"x_min":85,"x_max":558,"ha":643,"o":"m 414 363 q 414 435 414 389 q 407 527 415 482 q 380 605 400 572 q 319 638 359 638 q 276 621 293 638 q 249 578 258 604 q 235 520 239 553 q 230 456 231 488 q 230 396 229 424 q 231 350 231 368 q 231 279 231 324 q 237 191 231 235 q 264 115 244 147 q 322 84 283 84 q 383 117 364 84 q 409 196 402 150 q 415 289 416 242 q 414 363 414 336 m 558 358 q 552 229 558 296 q 523 108 546 162 q 452 19 499 54 q 322 -15 405 -15 q 191 19 238 -15 q 119 108 143 54 q 90 229 96 162 q 85 359 85 296 q 98 581 85 475 q 152 777 112 687 q 264 939 191 868 q 456 1057 337 1011 l 456 927 q 344 843 394 893 q 262 729 294 793 q 290 733 276 732 q 319 735 304 735 q 451 700 404 735 q 523 611 499 665 q 552 489 546 557 q 558 358 558 422 "},"Ь":{"x_min":100,"x_max":609,"ha":667,"o":"m 256 672 q 347 645 304 663 q 541 476 474 590 q 609 210 609 362 q 541 -54 609 59 q 347 -224 474 -168 q 225 -254 294 -247 q 100 -263 157 -261 l 100 1288 l 256 1288 l 256 672 m 256 -72 q 342 -39 307 -68 q 401 30 378 -11 q 434 120 424 72 q 445 211 445 168 q 434 302 445 254 q 401 391 424 350 q 342 461 378 433 q 256 494 307 490 l 256 -72 "},"n":{"x_min":114,"x_max":576,"ha":690,"o":"m 445 0 l 445 463 l 245 726 l 245 0 l 114 0 l 114 1091 l 445 661 l 445 1055 l 576 1055 l 576 0 l 445 0 "},"¤":{"x_min":3.5,"x_max":568.015625,"ha":643,"o":"m 568 958 q 404 846 476 915 q 297 681 333 776 l 543 681 l 515 599 l 273 599 q 269 560 270 579 q 268 522 268 542 q 268 507 268 515 q 269 492 268 498 l 487 492 l 459 410 l 284 410 q 388 223 312 303 q 562 97 463 144 l 562 -23 q 414 37 483 -2 q 291 132 345 76 q 199 259 237 189 q 147 410 162 329 l 3 410 l 31 492 l 137 492 q 136 505 136 498 q 136 521 136 514 q 137 560 136 540 q 141 599 138 579 l 3 599 l 31 681 l 159 681 q 312 933 203 832 q 568 1082 420 1033 l 568 958 l 568 958 "},"∂":{"x_min":168,"x_max":674,"ha":842,"o":"m 531 418 q 528 497 531 447 q 515 598 526 548 q 479 684 503 648 q 414 721 455 721 q 356 689 376 721 q 326 616 336 658 q 315 529 316 573 q 314 461 314 486 q 314 407 314 441 q 318 333 315 373 q 329 251 322 292 q 349 174 336 209 q 382 118 362 140 q 430 97 401 97 q 473 115 455 97 q 503 164 492 134 q 519 230 514 194 q 528 302 525 266 q 531 369 531 338 q 531 418 531 399 m 674 437 q 667 298 674 376 q 635 151 660 220 q 563 34 611 81 q 433 -13 515 -13 q 332 8 375 -13 q 260 66 290 30 q 212 151 230 103 q 184 249 194 198 q 171 351 174 299 q 168 448 168 404 q 175 568 168 501 q 206 695 183 636 q 271 794 229 754 q 383 835 313 835 q 464 814 426 835 q 421 882 444 855 q 370 925 398 908 q 307 950 341 941 q 229 964 272 958 l 247 1076 q 400 1046 334 1073 q 514 971 466 1018 q 592 862 561 923 q 642 730 623 800 q 667 584 660 659 q 674 437 674 509 "},"p":{"x_min":114,"x_max":540,"ha":578,"o":"m 416 613 q 402 700 416 658 q 366 778 389 741 q 311 846 342 815 q 245 901 280 877 l 244 319 q 310 374 279 341 q 365 446 342 406 q 402 529 388 486 q 416 613 416 572 m 540 618 q 518 477 540 543 q 458 355 497 411 q 366 255 420 300 q 245 180 311 211 l 245 0 l 114 0 l 114 1080 q 280 1025 202 1063 q 415 927 358 986 q 506 791 473 869 q 540 618 540 713 "},"‡":{"x_min":96.328125,"x_max":598.671875,"ha":695,"o":"m 407 140 l 407 -69 l 288 -69 l 288 140 l 96 140 l 96 247 l 288 247 l 288 626 l 96 626 l 96 733 l 288 733 l 288 942 l 407 942 l 407 733 l 598 733 l 598 626 l 407 626 l 407 247 l 598 247 l 598 140 l 407 140 "},"√":{"x_min":0,"x_max":0,"ha":342},"Ю":{"x_min":104,"x_max":1104,"ha":1157,"o":"m 928 524 q 928 624 928 563 q 925 755 928 687 q 913 893 922 824 q 886 1018 904 963 q 840 1109 869 1074 q 768 1144 811 1144 q 695 1109 724 1144 q 649 1018 666 1074 q 622 893 631 963 q 610 755 613 824 q 608 624 608 687 q 608 524 608 563 q 608 423 608 485 q 611 293 608 361 q 624 155 614 224 q 651 30 633 85 q 698 -60 669 -25 q 770 -95 727 -95 q 842 -60 813 -95 q 888 30 870 -25 q 914 155 905 85 q 925 293 922 224 q 928 423 929 361 q 928 524 928 484 m 104 -232 l 104 1288 l 260 1288 l 260 672 l 435 672 q 477 990 444 867 q 555 1183 509 1113 q 657 1279 601 1254 q 768 1304 712 1304 q 888 1273 827 1304 q 996 1158 948 1242 q 1074 920 1044 1073 q 1104 524 1104 767 q 1090 241 1104 362 q 1052 33 1076 120 q 997 -109 1029 -53 q 928 -198 965 -165 q 851 -243 891 -231 q 770 -256 811 -256 q 650 -225 711 -256 q 541 -110 590 -194 q 462 126 493 -25 q 432 521 432 277 l 260 521 l 260 -232 l 104 -232 "},"S":{"x_min":61,"x_max":546,"ha":589,"o":"m 546 47 q 461 -162 546 -93 q 227 -232 377 -232 l 75 -232 l 75 -60 l 196 -60 q 271 -56 236 -60 q 333 -41 307 -53 q 373 -6 358 -29 q 388 55 388 16 q 363 144 388 90 q 303 267 339 199 q 224 413 266 335 q 145 574 182 491 q 85 742 109 658 q 61 906 61 826 q 97 1093 61 1016 q 199 1217 134 1169 q 350 1286 263 1265 q 539 1307 437 1307 l 539 1127 q 416 1120 475 1127 q 314 1091 358 1113 q 244 1024 270 1068 q 219 906 219 980 q 243 759 219 834 q 303 609 267 684 q 382 461 340 534 q 461 315 424 387 q 521 176 497 244 q 546 47 546 108 "},"/":{"x_min":34.71875,"x_max":659.78125,"ha":695,"o":"m 120 -22 l 34 14 l 573 1071 l 659 1034 l 120 -22 "},"y":{"x_min":76.390625,"x_max":613.9375,"ha":667,"o":"m 293 0 l 163 0 l 266 340 l 76 1056 l 206 1056 l 336 568 l 484 1056 l 613 1056 l 293 0 "},"≈":{"x_min":113.890625,"x_max":719.5,"ha":833,"o":"m 719 398 q 697 382 713 391 q 660 364 682 373 q 611 348 638 354 q 556 341 584 341 q 486 352 529 341 q 400 375 444 362 q 317 399 356 389 q 255 410 277 410 q 213 403 236 410 q 172 387 191 397 q 136 364 152 376 q 113 337 120 351 l 113 448 q 135 464 119 454 q 172 483 151 474 q 221 499 194 493 q 276 506 248 506 q 344 495 304 506 q 427 471 384 485 q 510 448 470 458 q 577 437 550 437 q 619 444 597 437 q 661 460 641 450 q 696 483 680 471 q 719 510 712 496 l 719 398 l 719 398 m 719 599 q 697 583 713 592 q 660 565 682 574 q 611 549 638 555 q 556 542 584 542 q 486 553 529 542 q 400 576 444 563 q 317 600 356 590 q 255 611 277 611 q 213 604 236 611 q 172 588 191 598 q 136 565 152 577 q 113 538 120 552 l 113 649 q 135 665 119 655 q 172 684 151 675 q 221 700 194 694 q 276 707 248 707 q 344 696 304 707 q 427 672 384 686 q 510 649 470 659 q 577 638 550 638 q 619 645 597 638 q 661 661 641 651 q 696 684 680 672 q 719 711 712 697 l 719 599 l 719 599 "},"g":{"x_min":68,"x_max":518,"ha":632,"o":"m 518 -24 q 339 58 422 7 q 196 175 256 108 q 102 330 136 242 q 68 525 68 418 q 145 809 68 683 q 356 1017 223 935 q 432 1054 392 1039 q 512 1081 471 1069 l 512 962 q 390 891 448 933 q 290 794 333 848 q 221 675 247 740 q 196 536 196 609 q 247 333 196 427 q 390 176 298 238 l 390 517 l 293 517 l 293 627 l 518 627 l 518 -24 l 518 -24 "},"²":{"x_min":126,"x_max":330,"ha":463,"o":"m 330 899 q 309 807 330 853 q 264 718 289 760 q 218 641 238 676 q 198 584 198 606 q 217 542 198 552 q 265 533 236 533 l 316 533 l 316 469 l 252 469 q 202 473 225 469 q 162 489 179 478 q 135 521 145 500 q 126 573 126 541 q 147 651 126 613 q 192 728 168 689 q 238 808 217 767 q 259 895 259 849 q 247 943 259 924 q 218 973 236 962 q 177 988 200 984 q 129 992 154 992 l 129 1058 q 204 1050 168 1058 q 268 1023 240 1042 q 313 975 296 1005 q 330 899 330 945 "},"–":{"x_min":47.21875,"x_max":647.28125,"ha":695,"o":"m 47 463 l 47 560 l 647 560 l 647 463 l 47 463 "},"ë":{"x_min":114,"x_max":471.40625,"ha":540,"o":"m 114 0 l 114 1056 l 449 1056 l 449 943 l 245 943 l 245 627 l 449 627 l 449 514 l 245 514 l 245 113 l 471 113 l 471 0 l 114 0 m 245 1172 q 226 1129 245 1147 q 183 1111 208 1111 q 139 1129 157 1111 q 121 1172 121 1147 q 139 1216 121 1198 q 183 1235 157 1235 q 226 1216 208 1235 q 245 1172 245 1198 m 433 1172 q 414 1129 433 1147 q 370 1111 396 1111 q 326 1129 344 1111 q 308 1172 308 1147 q 326 1216 308 1198 q 370 1235 344 1235 q 414 1216 396 1235 q 433 1172 433 1198 "},"ƒ":{"x_min":1.203125,"x_max":637.796875,"ha":643,"o":"m 637 944 q 507 897 557 927 q 431 822 458 866 q 394 723 404 779 q 385 602 385 667 l 385 522 l 548 522 l 548 457 l 385 457 l 385 243 q 366 38 385 127 q 304 -118 348 -51 q 187 -231 260 -184 q 1 -308 113 -277 l 1 -191 q 126 -131 77 -168 q 203 -47 174 -95 q 242 64 231 1 q 254 205 254 127 l 254 457 l 90 457 l 90 522 l 254 522 l 254 598 q 271 764 254 690 q 332 897 288 838 q 450 996 376 955 q 637 1061 525 1037 l 637 944 l 637 944 "},"б":{"x_min":114,"x_max":539,"ha":620,"o":"m 245 626 q 285 619 265 623 q 321 608 306 615 q 407 563 368 591 q 476 497 447 534 q 522 411 505 459 q 539 306 539 363 q 522 201 539 249 q 476 116 505 154 q 407 50 447 79 q 320 5 368 22 q 273 -7 300 -2 q 218 -15 247 -12 q 163 -19 190 -18 q 114 -21 136 -21 l 114 1056 l 449 1056 l 449 943 l 245 943 l 245 626 m 245 111 q 312 132 283 115 q 361 176 341 150 q 391 236 381 202 q 401 306 401 270 q 391 377 401 343 q 361 437 381 411 q 312 481 341 463 q 245 502 283 498 l 245 111 "},"у":{"x_min":76.390625,"x_max":613.9375,"ha":667,"o":"m 293 0 l 163 0 l 266 340 l 76 1056 l 206 1056 l 336 568 l 484 1056 l 613 1056 l 293 0 "},"J":{"x_min":45.765625,"x_max":399,"ha":499,"o":"m 399 174 q 381 44 399 106 q 330 -72 364 -18 q 248 -169 297 -126 q 137 -240 199 -212 q 94 -256 117 -250 q 45 -267 70 -262 l 45 -89 q 133 -56 97 -84 q 195 13 170 -27 q 231 103 219 55 q 243 194 243 151 l 243 1288 l 399 1288 l 399 174 "},"Ã":{"x_min":30.5625,"x_max":672.28125,"ha":703,"o":"m 345 704 l 272 257 l 422 257 l 345 704 m 515 -232 l 451 106 l 243 106 l 180 -232 l 30 -232 l 327 1351 q 335 1367 330 1359 q 350 1375 340 1375 q 364 1367 361 1375 q 370 1351 368 1359 l 672 -232 l 515 -232 m 539 1589 q 526 1534 535 1563 q 505 1480 518 1505 q 470 1438 491 1455 q 418 1420 448 1420 q 375 1431 397 1420 q 335 1453 354 1441 q 296 1475 315 1465 q 260 1486 276 1486 q 238 1479 247 1486 q 223 1461 229 1472 q 212 1438 216 1451 q 204 1416 208 1426 l 158 1416 q 172 1469 164 1440 q 194 1523 180 1498 q 228 1565 207 1548 q 280 1582 248 1582 q 320 1571 301 1582 q 357 1549 339 1561 q 394 1527 375 1537 q 435 1516 412 1516 q 460 1523 450 1516 q 476 1541 469 1530 q 487 1565 483 1552 q 496 1589 491 1577 l 539 1589 l 539 1589 "},"©":{"x_min":81,"x_max":615,"ha":694,"o":"m 487 833 q 443 742 479 773 q 351 711 406 711 q 244 749 284 711 q 205 856 205 787 q 244 965 205 923 q 351 1007 284 1007 q 443 980 408 1007 q 484 900 479 953 l 429 900 q 352 956 413 956 q 290 930 312 956 q 268 858 268 904 q 348 764 268 764 q 427 833 415 764 l 487 833 l 487 833 m 562 858 q 545 933 562 898 q 499 996 528 969 q 431 1038 470 1023 q 348 1054 392 1054 q 263 1038 302 1054 q 194 996 223 1023 q 148 933 165 969 q 132 858 132 898 q 148 784 132 819 q 194 722 165 748 q 263 679 223 695 q 348 664 302 664 q 431 679 392 664 q 499 721 470 694 q 545 783 528 748 q 562 858 562 818 m 615 858 q 594 764 615 808 q 536 689 573 721 q 451 638 499 657 q 348 620 402 620 q 243 638 291 620 q 158 689 194 657 q 101 764 122 721 q 81 858 81 808 q 101 954 81 909 q 158 1031 122 998 q 243 1082 194 1063 q 348 1101 291 1101 q 451 1082 402 1101 q 536 1031 499 1063 q 594 954 573 998 q 615 858 615 909 "},"˘":{"x_min":97.234375,"x_max":437.53125,"ha":535,"o":"m 437 1285 q 411 1230 427 1261 q 372 1171 394 1200 q 324 1123 351 1143 q 266 1104 297 1104 q 209 1123 236 1104 q 161 1171 183 1142 q 122 1230 138 1199 q 97 1283 106 1260 l 144 1311 q 163 1268 154 1288 q 187 1232 173 1248 q 219 1206 201 1216 q 263 1197 237 1197 q 309 1206 290 1197 q 341 1232 327 1216 q 366 1269 355 1248 q 387 1313 376 1290 l 437 1285 l 437 1285 "},"≥":{"x_min":105.5625,"x_max":719.5,"ha":833,"o":"m 105 139 l 105 239 l 711 239 l 711 139 l 105 139 m 105 269 l 105 381 l 527 537 l 105 693 l 105 805 l 719 576 l 719 498 l 105 269 "},"ґ":{"x_min":114,"x_max":449,"ha":456,"o":"m 449 943 l 245 943 l 245 0 l 114 0 l 114 1056 l 318 1056 l 318 1190 l 449 1190 l 449 943 "},"D":{"x_min":100,"x_max":685,"ha":743,"o":"m 538 505 q 519 673 538 590 q 465 833 500 757 q 376 977 429 909 q 256 1095 324 1044 l 256 -31 q 378 68 325 8 q 466 199 431 127 q 519 349 501 270 q 538 505 538 427 m 685 529 q 637 228 685 374 q 484 -34 589 81 q 407 -107 454 -69 q 307 -179 359 -144 q 199 -240 254 -214 q 100 -278 144 -266 l 100 1366 q 345 1223 237 1304 q 530 1040 454 1142 q 645 811 605 938 q 685 529 685 684 "},"ÿ":{"x_min":76.390625,"x_max":613.9375,"ha":667,"o":"m 293 0 l 163 0 l 266 340 l 76 1056 l 206 1056 l 336 568 l 484 1056 l 613 1056 l 293 0 m 314 1160 q 295 1117 314 1135 q 252 1099 277 1099 q 208 1117 226 1099 q 190 1160 190 1135 q 208 1204 190 1186 q 252 1223 226 1223 q 295 1204 277 1223 q 314 1160 314 1186 m 502 1160 q 483 1117 502 1135 q 439 1099 465 1099 q 395 1117 413 1099 q 377 1160 377 1135 q 395 1204 377 1186 q 439 1223 413 1223 q 483 1204 465 1223 q 502 1160 502 1186 "},"ł":{"x_min":12.609375,"x_max":447.796875,"ha":514,"o":"m 114 0 l 114 434 l 62 400 l 12 471 l 114 541 l 114 1056 l 245 1056 l 245 632 l 329 692 l 379 619 l 245 526 l 245 113 l 447 113 l 447 0 l 114 0 "},"ц":{"x_min":114,"x_max":655,"ha":699,"o":"m 587 107 l 655 107 l 655 -111 l 548 -111 l 548 0 l 114 0 l 114 1056 l 245 1056 l 245 113 l 455 113 l 455 1056 l 586 1056 l 587 107 "},"Ł":{"x_min":-13.90625,"x_max":500.46875,"ha":500,"o":"m 100 -232 l 100 444 l 36 400 l -13 471 l 100 551 l 100 1288 l 256 1288 l 256 660 l 350 726 l 400 654 l 256 552 l 256 -81 l 500 -81 l 500 -232 l 100 -232 "},"Л":{"x_min":30.5625,"x_max":672.28125,"ha":703,"o":"m 345 704 l 180 -232 l 30 -232 l 327 1351 q 335 1367 330 1359 q 350 1375 340 1375 q 364 1367 361 1375 q 370 1351 368 1359 l 672 -232 l 515 -232 l 345 704 "},"$":{"x_min":131,"x_max":512,"ha":643,"o":"m 512 623 q 500 565 512 593 q 468 515 488 537 q 423 480 449 494 q 366 462 396 466 l 366 372 l 272 372 l 272 461 q 166 518 198 472 q 131 634 135 563 l 241 634 q 268 578 248 600 q 325 557 287 557 q 370 568 348 557 q 393 607 393 579 q 374 645 393 630 q 327 671 355 659 q 265 693 298 682 q 203 723 232 705 q 156 770 175 741 q 138 844 138 799 q 177 945 138 908 q 272 996 216 981 l 272 1073 l 366 1073 l 366 995 q 463 939 434 976 q 492 830 492 901 l 392 830 q 370 882 384 865 q 316 899 356 899 q 272 887 295 899 q 249 851 249 876 q 270 821 249 835 q 304 801 291 808 q 370 772 334 786 q 437 739 406 758 q 490 692 469 719 q 512 623 512 665 "},"w":{"x_min":98.625,"x_max":759.78125,"ha":858,"o":"m 613 -49 l 438 540 l 275 -48 l 98 1056 l 233 1056 l 315 540 l 438 1006 l 573 576 l 643 1056 l 759 1056 l 613 -49 "},"∫":{"x_min":0,"x_max":0,"ha":695},"\\":{"x_min":34.71875,"x_max":659.78125,"ha":695,"o":"m 573 -22 l 34 1034 l 120 1071 l 659 14 l 573 -22 "},"о":{"x_min":97,"x_max":657,"ha":754,"o":"m 511 502 q 511 569 511 526 q 509 664 512 613 q 499 767 506 714 q 477 861 492 819 q 438 930 462 903 q 377 958 413 958 q 315 933 340 958 q 277 867 291 908 q 254 778 262 827 q 245 680 247 728 q 243 591 243 633 q 243 526 243 549 q 243 459 243 501 q 245 371 243 419 q 256 274 248 323 q 279 186 263 226 q 318 122 294 147 q 379 97 342 97 q 437 120 413 97 q 476 181 461 144 q 498 263 491 217 q 508 354 505 309 q 511 438 511 399 q 511 502 511 478 m 657 494 q 654 392 657 448 q 641 280 651 337 q 613 169 631 223 q 564 75 595 116 q 488 9 533 34 q 379 -16 443 -16 q 265 11 312 -16 q 186 85 217 39 q 137 189 155 131 q 110 309 119 248 q 99 430 101 371 q 97 538 97 489 q 99 642 97 585 q 111 758 102 699 q 139 873 120 817 q 189 972 158 929 q 266 1041 220 1015 q 377 1068 312 1068 q 494 1038 447 1068 q 572 962 541 1009 q 620 853 604 915 q 645 728 637 792 q 655 603 654 664 q 657 494 657 542 "},"Д":{"x_min":11.4375,"x_max":845,"ha":855,"o":"m 134 -208 l 134 -376 l 17 -376 l 11 -69 l 144 -69 l 141 529 q 180 812 141 685 q 295 1041 220 939 q 479 1223 371 1143 q 725 1367 587 1304 l 725 -68 l 845 -68 l 845 -378 l 714 -378 l 714 -208 l 134 -208 m 569 1096 q 448 977 501 1044 q 360 833 395 910 q 306 674 325 757 q 288 506 288 590 l 292 -69 l 569 -69 l 569 1096 l 569 1096 "},"Ì":{"x_min":103.953125,"x_max":453.984375,"ha":364,"o":"m 104 -232 l 104 1288 l 260 1288 l 260 -232 l 104 -232 m 372 1337 l 248 1410 q 208 1432 233 1419 q 161 1462 184 1445 q 121 1497 138 1478 q 103 1535 103 1516 q 122 1576 103 1559 q 160 1593 140 1593 q 205 1577 181 1593 q 251 1541 228 1562 q 294 1497 274 1520 q 330 1460 315 1474 l 453 1337 l 372 1337 "},"Ç":{"x_min":52,"x_max":569.75,"ha":615,"o":"m 569 1147 q 414 1035 482 1102 q 301 884 347 968 q 232 706 255 801 q 210 512 210 611 q 301 161 210 317 q 563 -93 392 5 l 563 -266 q 364 -157 455 -226 l 317 -232 q 368 -304 356 -269 q 380 -379 380 -339 q 352 -466 380 -420 q 276 -539 324 -511 l 227 -502 q 284 -443 267 -477 q 301 -376 301 -409 q 285 -304 302 -340 q 227 -245 267 -268 l 321 -120 q 204 11 255 -61 q 120 166 154 84 q 69 336 86 248 q 52 512 52 423 q 85 765 52 643 q 185 995 119 888 q 348 1186 251 1101 q 569 1325 444 1270 l 569 1147 l 569 1147 "},"ъ":{"x_min":1.8125,"x_max":630,"ha":683,"o":"m 1 943 l 1 1056 l 337 1056 l 337 626 q 377 619 357 623 q 413 608 397 615 q 499 563 460 591 q 567 497 538 534 q 613 411 596 459 q 630 306 630 363 q 613 202 630 249 q 567 116 596 154 q 499 50 538 79 q 412 5 459 22 q 365 -7 391 -2 q 310 -15 339 -12 q 255 -19 282 -18 q 206 -21 228 -21 l 206 943 l 1 943 m 337 111 q 404 132 375 115 q 452 176 433 150 q 482 236 472 202 q 492 306 492 270 q 482 377 492 343 q 452 437 472 411 q 404 481 433 463 q 337 502 375 498 l 337 111 "},"C":{"x_min":52,"x_max":569.75,"ha":615,"o":"m 569 1147 q 414 1035 482 1102 q 301 884 347 967 q 232 706 255 801 q 210 512 210 610 q 301 161 210 317 q 564 -93 393 5 l 564 -267 q 343 -138 439 -219 q 183 46 247 -57 q 85 269 118 149 q 52 512 52 388 q 85 765 52 642 q 185 995 119 888 q 348 1186 251 1101 q 569 1325 444 1270 l 569 1147 l 569 1147 "},"!":{"x_min":72.234375,"x_max":241.6875,"ha":314,"o":"m 241 69 q 217 9 241 33 q 156 -15 193 -15 q 96 9 120 -15 q 72 69 72 33 q 96 129 72 105 q 156 154 120 154 q 217 129 193 154 q 241 69 241 105 m 200 242 l 117 242 l 87 1056 l 240 1056 l 200 242 "},"ç":{"x_min":68,"x_max":499.03125,"ha":608,"o":"m 499 958 q 380 884 435 927 q 285 785 325 840 q 221 665 244 730 q 199 527 199 600 q 221 389 199 454 q 284 270 244 325 q 378 173 323 216 q 494 97 432 130 l 494 -23 q 358 30 421 -4 l 290 -76 q 341 -148 329 -113 q 353 -223 353 -183 q 325 -310 353 -265 q 248 -383 297 -355 l 200 -347 q 257 -288 240 -322 q 274 -220 274 -254 q 257 -148 275 -184 q 200 -90 240 -112 l 312 58 q 134 254 200 134 q 68 516 68 373 q 137 793 68 668 q 330 1002 207 918 q 412 1048 368 1029 q 499 1082 455 1066 l 499 958 l 499 958 "},"È":{"x_min":99.953125,"x_max":529.625,"ha":601,"o":"m 100 -232 l 100 1288 l 503 1288 l 503 1137 l 256 1137 l 256 672 l 503 672 l 503 521 l 256 521 l 256 -81 l 529 -81 l 529 -232 l 100 -232 m 368 1337 l 244 1410 q 204 1432 229 1419 q 157 1462 180 1445 q 117 1497 134 1478 q 99 1535 99 1516 q 118 1576 99 1559 q 156 1593 136 1593 q 201 1577 177 1593 q 247 1541 224 1562 q 290 1497 270 1520 q 326 1460 311 1474 l 449 1337 l 368 1337 "},"Й":{"x_min":100,"x_max":654,"ha":754,"o":"m 548 1569 q 521 1515 538 1545 q 483 1456 504 1484 q 434 1408 461 1427 q 377 1389 407 1389 q 320 1408 346 1389 q 271 1456 293 1427 q 233 1515 249 1484 q 207 1568 217 1545 l 255 1596 q 274 1553 264 1573 q 298 1517 284 1533 q 329 1491 311 1501 q 374 1482 348 1482 q 419 1491 400 1482 q 452 1517 438 1501 q 476 1554 466 1533 q 498 1597 486 1574 l 548 1569 l 548 1569 m 254 -232 l 254 424 l 498 813 l 498 -232 l 654 -232 l 654 1340 l 254 720 l 254 1288 l 100 1288 l 100 -232 l 254 -232 "},"ﬁ":{"x_min":114,"x_max":774,"ha":888,"o":"m 245 280 l 245 0 l 114 0 l 114 1056 l 449 1056 l 449 943 l 245 943 l 245 393 l 449 393 l 449 280 l 245 280 m 643 0 l 643 1056 l 774 1056 l 774 0 l 643 0 "},"X":{"x_min":23.609375,"x_max":598.65625,"ha":624,"o":"m 443 -232 l 305 254 l 169 -232 l 34 -232 l 230 512 l 23 1288 l 180 1288 l 313 823 l 440 1288 l 569 1288 l 386 557 l 598 -232 l 443 -232 "},"ô":{"x_min":97,"x_max":657,"ha":754,"o":"m 511 502 q 511 569 511 526 q 509 664 512 613 q 499 767 506 714 q 477 861 492 819 q 438 930 462 903 q 377 958 413 958 q 315 933 340 958 q 277 867 291 908 q 254 778 262 827 q 245 680 247 728 q 243 591 243 633 q 243 526 243 549 q 243 459 243 501 q 245 371 243 419 q 256 274 248 323 q 279 186 263 226 q 318 122 294 147 q 379 97 342 97 q 437 120 413 97 q 476 181 461 144 q 498 263 491 217 q 508 354 505 309 q 511 438 511 399 q 511 502 511 478 m 657 494 q 654 392 657 448 q 641 280 651 337 q 613 169 631 223 q 564 75 595 116 q 488 9 533 34 q 379 -16 443 -16 q 265 11 312 -16 q 186 85 217 39 q 137 189 155 131 q 110 309 119 248 q 99 430 101 371 q 97 538 97 489 q 99 642 97 585 q 111 758 102 699 q 139 873 120 817 q 189 972 158 929 q 266 1041 220 1015 q 377 1068 312 1068 q 494 1038 447 1068 q 572 962 541 1009 q 620 853 604 915 q 645 728 637 792 q 655 603 654 664 q 657 494 657 542 m 526 1082 l 376 1219 l 227 1080 l 205 1093 l 360 1346 l 389 1346 l 545 1095 l 526 1082 "},"Б":{"x_min":100,"x_max":609,"ha":667,"o":"m 256 672 q 347 646 304 664 q 541 476 474 590 q 609 211 609 362 q 541 -54 609 59 q 347 -224 474 -168 q 225 -254 294 -247 q 100 -263 157 -261 l 100 1288 l 503 1288 l 503 1137 l 256 1137 l 256 672 m 256 -72 q 342 -39 307 -68 q 401 30 378 -11 q 434 120 424 72 q 445 211 445 168 q 434 302 445 254 q 401 391 424 350 q 342 461 378 433 q 256 494 307 490 l 256 -72 "},"г":{"x_min":114,"x_max":449.171875,"ha":463,"o":"m 245 0 l 114 0 l 114 1056 l 449 1056 l 449 943 l 245 943 l 245 0 "},"х":{"x_min":76.390625,"x_max":555.59375,"ha":632,"o":"m 425 0 l 306 374 l 197 0 l 84 0 l 244 532 l 76 1056 l 206 1056 l 318 705 l 423 1056 l 530 1056 l 377 551 l 555 0 l 425 0 "},"}":{"x_min":30.921875,"x_max":664,"ha":695,"o":"m 664 369 q 544 347 594 359 q 462 309 494 334 q 415 242 430 284 q 400 133 400 200 l 400 -6 q 305 -224 400 -156 q 30 -293 211 -293 l 30 -235 q 119 -226 75 -235 q 196 -194 162 -218 q 252 -126 230 -171 q 274 -11 274 -82 l 274 156 q 292 257 274 215 q 346 329 310 299 q 434 379 382 359 q 558 409 487 398 q 346 488 418 431 q 274 661 274 545 l 274 829 q 252 944 274 900 q 196 1012 230 989 q 119 1044 162 1036 q 30 1053 75 1053 l 30 1111 q 305 1042 210 1111 q 400 823 400 973 l 400 686 q 415 577 400 619 q 462 508 430 534 q 544 470 494 483 q 664 447 594 456 l 664 369 l 664 369 "},"â":{"x_min":51.390625,"x_max":586.15625,"ha":638,"o":"m 315 621 l 251 342 l 379 342 l 315 621 m 455 0 l 401 234 l 229 234 l 176 0 l 51 0 l 300 1100 q 306 1112 301 1107 q 318 1117 311 1117 q 329 1111 327 1117 q 334 1099 331 1106 l 586 0 l 455 0 m 469 1119 l 319 1256 l 170 1117 l 148 1130 l 303 1383 l 332 1383 l 488 1132 l 469 1119 "},"ø":{"x_min":97,"x_max":657,"ha":754,"o":"m 511 502 q 511 595 511 534 q 504 726 511 658 l 269 212 q 310 130 284 163 q 379 97 335 97 q 437 120 413 97 q 476 181 460 144 q 498 263 491 217 q 508 354 505 309 q 511 438 511 399 q 511 502 511 478 m 486 835 q 445 923 470 888 q 377 958 420 958 q 315 933 340 958 q 277 867 291 908 q 254 778 262 827 q 245 680 247 728 q 243 591 243 632 q 243 526 243 549 q 243 437 243 494 q 250 320 243 381 l 486 835 l 486 835 m 657 494 q 654 392 657 448 q 641 280 651 337 q 613 169 631 223 q 564 75 595 116 q 488 9 533 34 q 379 -16 443 -16 q 276 5 319 -16 q 202 64 233 27 l 163 -19 l 107 6 l 162 127 q 126 227 138 173 q 106 336 113 281 q 98 443 99 391 q 97 538 97 495 q 99 642 97 585 q 111 758 102 699 q 139 873 120 817 q 189 972 158 929 q 266 1041 220 1015 q 377 1068 312 1068 q 480 1045 437 1068 q 554 987 523 1023 l 593 1071 l 650 1044 l 594 923 q 629 818 616 875 q 648 704 643 761 q 655 592 654 647 q 657 494 657 537 "},"Δ":{"x_min":0,"x_max":0,"ha":695},"‰":{"x_min":61,"x_max":1126,"ha":1187,"o":"m 674 232 q 657 377 674 337 q 614 417 641 417 q 569 377 584 417 q 554 232 554 337 q 558 143 554 179 q 569 86 562 108 q 587 56 576 65 q 614 47 598 47 q 639 56 627 47 q 657 86 650 65 q 669 143 665 108 q 674 232 674 179 m 270 713 q 254 858 270 819 q 210 897 239 897 q 184 887 196 897 q 166 858 173 878 q 154 801 158 837 q 150 713 150 766 q 166 567 150 606 q 210 527 182 527 q 254 567 239 527 q 270 713 270 606 m 1036 232 q 1020 377 1036 337 q 976 417 1004 417 q 932 377 948 417 q 917 232 917 337 q 921 143 917 179 q 932 86 925 108 q 951 56 940 65 q 976 47 962 47 q 1001 56 990 47 q 1020 86 1012 65 q 1031 143 1027 108 q 1036 232 1036 179 m 763 232 q 726 38 763 97 q 614 -21 689 -21 q 500 38 537 -21 q 464 232 464 97 q 500 424 464 365 q 614 484 537 484 q 726 424 689 484 q 763 232 763 365 m 205 -29 l 119 5 l 611 963 l 694 929 l 205 -29 m 360 713 q 323 520 360 579 q 209 461 286 461 q 97 520 134 461 q 61 713 61 579 q 97 904 61 845 q 209 964 134 964 q 323 904 286 964 q 360 713 360 845 m 1126 232 q 1088 38 1126 97 q 976 -21 1051 -21 q 863 38 900 -21 q 827 232 827 97 q 863 424 827 365 q 976 484 900 484 q 1088 424 1051 484 q 1126 232 1126 365 "},"Ä":{"x_min":30.5625,"x_max":672.28125,"ha":703,"o":"m 345 704 l 272 257 l 422 257 l 345 704 m 515 -232 l 451 106 l 243 106 l 180 -232 l 30 -232 l 327 1351 q 335 1367 330 1359 q 350 1375 340 1375 q 364 1367 361 1375 q 370 1351 368 1359 l 672 -232 l 515 -232 m 316 1460 q 297 1417 316 1435 q 254 1399 279 1399 q 210 1417 228 1399 q 192 1460 192 1435 q 210 1504 192 1486 q 254 1523 228 1523 q 297 1504 279 1523 q 316 1460 316 1486 m 504 1460 q 485 1417 504 1435 q 441 1399 467 1399 q 397 1417 415 1399 q 379 1460 379 1435 q 397 1504 379 1486 q 441 1523 415 1523 q 485 1504 467 1523 q 504 1460 504 1486 "},"Ч":{"x_min":53,"x_max":561,"ha":661,"o":"m 405 1288 l 561 1288 l 561 -232 l 405 -232 l 405 383 q 313 409 356 391 q 120 579 187 465 q 53 844 53 693 l 53 1288 l 209 1288 l 209 844 q 220 753 209 801 q 256 664 232 706 q 317 594 280 622 q 405 561 353 565 l 405 1288 "},"—":{"x_min":0,"x_max":1389,"ha":1389,"o":"m 0 463 l 0 560 l 1389 560 l 1389 463 l 0 463 "},"N":{"x_min":100,"x_max":654,"ha":754,"o":"m 500 -232 l 500 425 l 256 813 l 256 -232 l 100 -232 l 100 1340 l 500 720 l 500 1287 l 654 1287 l 654 -232 l 500 -232 "},"⁄":{"x_min":-322.25,"x_max":641.71875,"ha":319,"o":"m -247 -35 l -322 17 l 568 1076 l 641 1023 l -247 -35 "},"2":{"x_min":136,"x_max":505,"ha":643,"o":"m 505 783 q 487 671 505 727 q 444 560 470 615 q 386 454 417 505 q 328 357 355 402 q 285 274 302 312 q 268 209 268 237 q 302 135 268 152 q 385 118 336 118 l 479 118 l 479 0 l 362 0 q 273 8 314 0 q 201 38 231 16 q 153 96 170 59 q 136 190 136 133 q 153 286 136 238 q 197 380 170 333 q 255 474 224 427 q 312 570 285 522 q 356 670 339 619 q 374 776 374 720 q 353 863 374 829 q 301 917 333 897 q 227 945 269 937 q 142 952 186 952 l 142 1070 q 277 1056 212 1070 q 393 1009 342 1043 q 474 920 444 976 q 505 783 505 865 "},"ü":{"x_min":114,"x_max":586,"ha":700,"o":"m 114 0 l 114 1056 l 245 1056 l 245 113 l 455 113 l 455 1056 l 586 1056 l 586 0 l 114 0 m 317 1164 q 298 1121 317 1139 q 255 1103 280 1103 q 211 1121 229 1103 q 193 1164 193 1139 q 211 1208 193 1190 q 255 1227 229 1227 q 298 1208 280 1227 q 317 1164 317 1190 m 505 1164 q 486 1121 505 1139 q 442 1103 468 1103 q 398 1121 416 1103 q 380 1164 380 1139 q 398 1208 380 1190 q 442 1227 416 1227 q 486 1208 468 1227 q 505 1164 505 1190 "},"М":{"x_min":52.78125,"x_max":841.734375,"ha":895,"o":"m 700 -232 l 613 548 l 447 -122 l 280 548 l 194 -232 l 52 -232 l 247 1415 l 447 555 l 644 1415 l 841 -232 l 700 -232 "},"ь":{"x_min":114,"x_max":539,"ha":620,"o":"m 245 626 q 285 619 265 623 q 321 608 306 615 q 407 563 368 591 q 476 497 447 534 q 522 411 505 459 q 539 306 539 363 q 522 202 539 249 q 476 116 505 154 q 407 50 447 79 q 320 5 368 22 q 273 -7 300 -2 q 218 -15 247 -12 q 163 -19 190 -18 q 114 -21 136 -21 l 114 1056 l 245 1056 l 245 626 m 245 111 q 312 132 283 115 q 361 176 341 150 q 391 236 381 202 q 401 306 401 270 q 391 377 401 343 q 361 437 381 411 q 312 481 341 463 q 245 502 283 498 l 245 111 "},"Ó":{"x_min":68,"x_max":740,"ha":808,"o":"m 564 524 q 564 624 564 563 q 561 755 564 687 q 549 893 558 824 q 522 1018 540 963 q 476 1109 505 1074 q 404 1144 447 1144 q 331 1109 360 1144 q 285 1018 302 1074 q 258 893 267 963 q 246 755 249 824 q 244 624 244 687 q 244 524 244 563 q 244 423 244 485 q 247 293 244 361 q 260 155 250 224 q 287 30 269 85 q 334 -60 305 -25 q 406 -95 363 -95 q 478 -60 449 -95 q 524 30 506 -25 q 550 155 541 85 q 561 293 558 224 q 564 423 565 361 q 564 524 564 484 m 740 524 q 726 241 740 362 q 688 33 712 120 q 633 -109 665 -53 q 564 -198 601 -165 q 487 -243 527 -231 q 406 -256 447 -256 q 326 -243 366 -256 q 248 -198 285 -231 q 177 -110 211 -165 q 120 32 144 -54 q 81 240 95 119 q 68 524 68 362 q 97 920 68 767 q 175 1158 127 1073 q 283 1273 223 1242 q 404 1304 344 1304 q 524 1273 463 1304 q 632 1158 584 1242 q 710 920 680 1073 q 740 524 740 767 m 695 1538 q 678 1500 695 1519 q 638 1465 661 1481 q 590 1435 615 1448 q 551 1413 565 1422 l 427 1340 l 345 1340 l 469 1463 q 504 1500 483 1477 q 548 1544 525 1523 q 594 1580 570 1565 q 638 1596 618 1596 q 677 1579 659 1596 q 695 1538 695 1562 "},"˜":{"x_min":23.609375,"x_max":404.203125,"ha":426,"o":"m 404 1279 q 391 1224 400 1253 q 370 1170 383 1195 q 335 1128 356 1145 q 283 1110 313 1110 q 240 1121 262 1110 q 200 1143 219 1131 q 161 1165 180 1155 q 125 1176 141 1176 q 103 1169 112 1176 q 88 1151 94 1162 q 77 1128 81 1141 q 69 1106 73 1116 l 23 1106 q 37 1159 29 1130 q 59 1213 45 1188 q 93 1255 72 1238 q 145 1272 113 1272 q 185 1261 166 1272 q 222 1239 204 1251 q 259 1217 240 1227 q 300 1206 277 1206 q 325 1213 315 1206 q 341 1231 334 1220 q 352 1255 348 1242 q 361 1279 356 1267 l 404 1279 l 404 1279 "},"ˇ":{"x_min":97.234375,"x_max":437.53125,"ha":535,"o":"m 281 1107 l 252 1107 l 97 1357 l 116 1371 l 266 1233 l 415 1372 l 437 1358 l 281 1107 "},"Ÿ":{"x_min":6.9375,"x_max":657,"ha":663,"o":"m 272 -232 l 118 -232 l 251 295 l 6 1288 l 161 1288 l 325 589 l 502 1288 l 657 1288 l 272 -232 m 299 1389 q 280 1346 299 1364 q 237 1328 262 1328 q 193 1346 211 1328 q 175 1389 175 1364 q 193 1433 175 1415 q 237 1452 211 1452 q 280 1433 262 1452 q 299 1389 299 1415 m 487 1389 q 468 1346 487 1364 q 424 1328 450 1328 q 380 1346 398 1328 q 362 1389 362 1364 q 380 1433 362 1415 q 424 1452 398 1452 q 468 1433 450 1452 q 487 1389 487 1415 "},"€":{"x_min":3.5,"x_max":568.015625,"ha":643,"o":"m 568 958 q 404 846 476 915 q 297 681 333 776 l 543 681 l 515 599 l 273 599 q 269 560 270 579 q 268 522 268 542 q 268 507 268 515 q 269 492 268 498 l 487 492 l 459 410 l 284 410 q 388 223 312 303 q 562 97 463 144 l 562 -23 q 414 37 483 -2 q 291 132 345 76 q 199 259 237 189 q 147 410 162 329 l 3 410 l 31 492 l 137 492 q 136 505 136 498 q 136 521 136 514 q 137 560 136 540 q 141 599 138 579 l 3 599 l 31 681 l 159 681 q 312 933 203 832 q 568 1082 420 1033 l 568 958 l 568 958 "},"в":{"x_min":114,"x_max":540,"ha":620,"o":"m 403 306 q 391 378 403 347 q 361 435 380 409 q 315 484 341 461 q 258 529 288 506 q 350 638 310 575 q 390 775 390 702 q 348 886 390 840 q 245 948 307 933 l 245 111 q 313 132 284 115 q 363 176 342 150 q 393 236 383 202 q 403 306 403 270 m 540 293 q 523 196 540 241 q 477 114 506 151 q 408 50 448 77 q 321 5 368 22 q 274 -7 300 -2 q 219 -15 247 -12 q 163 -19 190 -18 q 114 -20 136 -20 l 114 1077 q 256 1061 183 1077 q 389 1008 329 1044 q 487 915 449 972 q 526 776 526 858 q 497 647 526 708 q 425 536 469 586 q 508 427 477 490 q 540 293 540 363 "},"С":{"x_min":52,"x_max":569.75,"ha":615,"o":"m 569 1147 q 414 1035 482 1102 q 301 884 347 967 q 232 706 255 801 q 210 512 210 610 q 301 161 210 317 q 564 -93 393 5 l 564 -267 q 343 -138 439 -219 q 183 46 247 -57 q 85 269 118 149 q 52 512 52 388 q 85 765 52 642 q 185 995 119 888 q 348 1186 251 1101 q 569 1325 444 1270 l 569 1147 l 569 1147 "},"Ω":{"x_min":0,"x_max":0,"ha":695},"ß":{"x_min":80,"x_max":1046,"ha":1125,"o":"m 483 188 q 464 100 483 136 q 411 42 445 65 q 330 9 377 19 q 228 0 284 0 l 90 0 l 90 118 l 203 118 q 255 119 228 118 q 303 128 281 120 q 337 152 324 136 q 351 201 351 169 q 330 266 351 229 q 280 348 310 304 q 215 443 250 393 q 150 549 180 494 q 100 664 120 605 q 80 786 80 723 q 96 883 80 840 q 141 958 113 926 q 208 1014 170 991 q 291 1049 246 1037 q 379 1064 331 1061 q 477 1068 427 1068 l 477 949 q 383 944 431 949 q 297 921 335 938 q 235 870 259 904 q 211 781 211 837 q 231 682 211 731 q 281 583 251 633 q 347 484 312 533 q 412 385 381 434 q 462 286 442 336 q 483 188 483 237 m 1046 188 q 1027 100 1046 136 q 974 42 1008 65 q 893 9 940 19 q 791 0 847 0 l 653 0 l 653 118 l 766 118 q 818 119 791 118 q 866 128 844 120 q 900 152 887 136 q 914 201 914 169 q 893 266 914 229 q 843 348 873 304 q 778 443 813 393 q 713 549 743 494 q 663 664 683 605 q 643 786 643 723 q 659 883 643 840 q 704 958 676 926 q 771 1014 733 991 q 854 1049 809 1037 q 942 1064 894 1061 q 1040 1068 990 1068 l 1040 949 q 946 944 994 949 q 860 921 898 938 q 798 870 822 904 q 774 781 774 837 q 794 682 774 731 q 844 583 814 633 q 910 484 875 533 q 975 385 944 434 q 1025 286 1005 336 q 1046 188 1046 237 "},"s":{"x_min":81,"x_max":484,"ha":563,"o":"m 484 188 q 465 100 484 136 q 412 42 446 65 q 331 9 378 19 q 229 0 285 0 l 91 0 l 91 118 l 205 118 q 256 119 229 118 q 304 128 282 120 q 338 152 325 136 q 352 201 352 169 q 331 266 352 229 q 281 348 311 304 q 216 443 251 393 q 151 549 181 494 q 101 664 121 605 q 81 786 81 723 q 97 883 81 840 q 142 958 114 926 q 209 1014 171 991 q 292 1049 247 1037 q 380 1064 332 1061 q 478 1068 428 1068 l 478 949 q 384 944 432 949 q 298 921 336 938 q 236 870 260 904 q 212 781 212 837 q 232 682 212 731 q 282 583 252 633 q 348 484 313 533 q 413 385 382 434 q 463 286 443 336 q 484 188 484 237 "},"?":{"x_min":8.6875,"x_max":420,"ha":451,"o":"m 266 69 q 241 9 266 33 q 181 -15 217 -15 q 121 9 145 -15 q 97 69 97 33 q 121 129 97 105 q 181 154 145 154 q 241 129 217 154 q 266 69 266 105 m 420 862 q 389 722 420 787 q 322 596 358 656 q 255 477 286 536 q 225 358 225 419 q 230 297 225 327 q 242 237 235 266 l 130 237 q 111 354 111 295 q 140 487 111 423 q 205 613 169 551 q 269 739 240 676 q 299 870 299 802 q 277 944 299 913 q 212 975 255 975 q 155 953 180 975 q 129 881 129 931 l 8 888 q 36 977 15 943 q 85 1032 57 1012 q 147 1060 114 1052 q 214 1068 180 1068 q 304 1052 265 1068 q 369 1007 343 1036 q 407 941 394 979 q 420 862 420 904 "},"c":{"x_min":68,"x_max":499.03125,"ha":608,"o":"m 499 958 q 380 884 435 927 q 285 785 325 840 q 221 665 244 730 q 199 527 199 600 q 221 389 199 454 q 284 270 244 325 q 378 173 324 216 q 494 97 432 130 l 494 -23 q 324 51 401 0 q 189 173 246 102 q 100 331 132 244 q 68 516 68 419 q 137 793 68 668 q 330 1002 207 918 q 412 1048 368 1029 q 499 1082 455 1066 l 499 958 l 499 958 "},"¶":{"x_min":64,"x_max":581,"ha":695,"o":"m 360 927 q 275 879 312 911 q 212 804 237 847 q 173 713 186 762 q 160 616 160 665 q 173 516 160 566 q 212 420 186 465 q 275 341 237 376 q 360 290 312 306 l 360 927 m 360 -70 l 360 172 q 142 347 221 234 q 64 616 64 461 q 95 786 64 712 q 180 916 127 861 q 301 1009 233 972 q 442 1065 369 1045 l 442 -70 l 360 -70 m 499 -70 l 499 1079 l 581 1095 l 581 -70 l 499 -70 "},"•":{"x_min":49,"x_max":331,"ha":379,"o":"m 331 512 q 319 457 331 483 q 290 412 308 432 q 245 382 271 393 q 190 371 219 371 q 135 382 161 371 q 89 412 108 393 q 60 457 71 432 q 49 512 49 483 q 60 567 49 541 q 89 612 71 592 q 134 642 108 631 q 189 654 160 654 q 244 642 218 654 q 290 612 271 631 q 319 567 308 592 q 331 512 331 541 "},"н":{"x_min":114,"x_max":586,"ha":700,"o":"m 455 0 l 455 514 l 245 514 l 245 0 l 114 0 l 114 1056 l 245 1056 l 245 627 l 455 627 l 455 1056 l 586 1056 l 586 0 l 455 0 "},"(":{"x_min":56,"x_max":389.46875,"ha":443,"o":"m 389 1068 q 307 941 343 1004 q 246 813 271 879 q 208 677 221 748 q 195 526 195 606 q 241 240 195 379 q 371 -19 288 102 l 270 -19 q 179 103 220 42 q 112 227 139 163 q 70 361 85 291 q 56 515 56 431 q 115 811 56 672 q 279 1068 175 951 l 389 1068 l 389 1068 "},"◊":{"x_min":0,"x_max":0,"ha":342},"м":{"x_min":98.625,"x_max":757,"ha":856,"o":"m 637 0 l 566 543 l 427 76 l 288 543 l 216 0 l 98 0 l 261 1145 l 427 547 l 591 1145 l 757 0 l 637 0 "},"­":{"x_min":47,"x_max":329,"ha":376,"o":"m 47 456 l 47 567 l 329 567 l 329 456 l 47 456 "},"з":{"x_min":113.96875,"x_max":539,"ha":619,"o":"m 113 1078 q 256 1061 183 1078 q 388 1008 329 1044 q 486 915 448 972 q 525 776 525 858 q 496 647 525 708 q 424 536 468 586 q 507 427 476 490 q 539 293 539 363 q 522 196 539 241 q 476 114 505 151 q 408 49 447 77 q 321 5 368 22 q 274 -7 300 -2 q 219 -15 247 -12 q 163 -19 190 -18 q 114 -21 136 -21 l 114 115 q 154 116 132 115 q 199 120 176 117 q 240 124 221 122 q 274 133 260 127 q 365 194 329 152 q 402 293 402 236 q 390 372 402 338 q 359 434 379 407 q 313 484 340 461 q 257 529 287 507 q 349 639 309 575 q 389 776 389 702 q 363 852 389 821 q 298 903 337 883 q 209 932 258 923 q 113 942 159 942 l 113 1078 "},":":{"x_min":47,"x_max":216,"ha":264,"o":"m 216 69 q 191 9 216 33 q 131 -15 167 -15 q 71 9 95 -15 q 47 69 47 33 q 71 129 47 105 q 131 154 95 154 q 191 129 167 154 q 216 69 216 105 m 216 638 q 191 578 216 602 q 131 554 167 554 q 71 578 95 554 q 47 638 47 602 q 71 698 47 674 q 131 723 95 723 q 191 698 167 723 q 216 638 216 674 "},"і":{"x_min":114,"x_max":245,"ha":358,"o":"m 114 0 l 114 1056 l 245 1056 l 245 0 l 114 0 "},"Û":{"x_min":100,"x_max":667,"ha":767,"o":"m 100 -232 l 100 1288 l 256 1288 l 256 -74 l 511 -74 l 511 1288 l 667 1288 l 667 -232 l 100 -232 m 528 1335 l 378 1472 l 229 1333 l 207 1346 l 362 1599 l 391 1599 l 547 1348 l 528 1335 "},"V":{"x_min":13.890625,"x_max":625.046875,"ha":639,"o":"m 318 -298 l 13 1288 l 166 1288 l 322 469 l 477 1288 l 625 1288 l 318 -298 "},"У":{"x_min":6.9375,"x_max":657,"ha":663,"o":"m 272 -232 l 118 -232 l 251 295 l 6 1288 l 161 1288 l 325 589 l 502 1288 l 657 1288 l 272 -232 "},"@":{"x_min":43,"x_max":953,"ha":996,"o":"m 601 501 q 579 557 601 538 q 527 577 557 577 q 467 554 496 577 q 417 498 439 532 q 383 424 396 464 q 371 347 371 383 q 392 289 371 308 q 439 271 414 271 q 499 291 469 271 q 551 346 529 312 q 587 420 573 379 q 601 501 601 461 m 953 516 q 928 372 953 430 q 867 278 904 313 q 787 226 830 242 q 705 211 744 211 q 624 231 652 211 q 582 288 595 252 q 513 228 551 247 q 429 210 474 210 q 369 218 398 210 q 317 244 340 226 q 279 291 294 262 q 265 362 265 321 q 285 466 265 415 q 339 555 305 516 q 417 618 373 594 q 511 642 462 642 q 594 618 562 642 q 637 561 626 594 l 658 626 l 751 626 l 684 404 q 674 309 664 335 q 734 284 684 284 q 792 300 764 284 q 843 346 821 317 q 878 415 865 375 q 892 503 892 456 q 864 620 892 569 q 789 706 836 671 q 680 759 741 741 q 551 778 619 778 q 385 752 463 778 q 248 679 306 727 q 156 558 190 630 q 122 391 122 486 q 153 253 122 315 q 237 148 184 191 q 360 81 290 105 q 509 58 430 58 q 676 80 590 58 q 859 155 762 102 l 890 113 q 701 29 798 58 q 512 1 605 1 q 331 28 416 1 q 181 105 245 55 q 80 228 117 156 q 43 391 43 301 q 72 547 43 469 q 165 687 102 625 q 323 789 227 750 q 551 828 419 828 q 716 803 641 828 q 843 736 790 779 q 924 637 896 694 q 953 516 953 580 "},"¾":{"x_min":47.3125,"x_max":873.5625,"ha":947,"o":"m 318 674 q 311 599 318 637 q 286 533 304 562 q 239 485 269 503 q 165 467 209 467 l 165 531 q 205 545 190 531 q 227 580 220 559 q 236 624 234 601 q 239 667 239 648 q 236 710 239 684 q 227 758 234 735 q 207 798 220 781 q 169 815 193 815 q 143 808 154 815 q 122 790 132 801 l 79 817 l 187 993 l 47 993 l 47 1056 l 298 1056 l 298 1039 l 198 875 q 259 854 236 875 q 295 802 281 833 q 313 737 308 771 q 318 674 318 702 m 746 335 l 671 147 l 746 147 l 746 335 m 818 84 l 818 0 l 747 0 l 747 84 l 572 84 l 784 594 l 818 594 l 818 147 l 873 147 l 873 84 l 818 84 m 184 -35 l 127 17 l 801 1076 l 857 1023 l 184 -35 "},"i":{"x_min":114,"x_max":245,"ha":358,"o":"m 114 0 l 114 1056 l 245 1056 l 245 0 l 114 0 "},"≤":{"x_min":105.5625,"x_max":719.5,"ha":833,"o":"m 113 139 l 113 239 l 719 239 l 719 139 l 113 139 m 105 498 l 105 576 l 719 805 l 719 693 l 297 537 l 719 381 l 719 269 l 105 498 "},"ё":{"x_min":114,"x_max":471.40625,"ha":540,"o":"m 114 0 l 114 1056 l 449 1056 l 449 943 l 245 943 l 245 627 l 449 627 l 449 514 l 245 514 l 245 113 l 471 113 l 471 0 l 114 0 m 245 1172 q 226 1129 245 1147 q 183 1111 208 1111 q 139 1129 157 1111 q 121 1172 121 1147 q 139 1216 121 1198 q 183 1235 157 1235 q 226 1216 208 1235 q 245 1172 245 1198 m 433 1172 q 414 1129 433 1147 q 370 1111 396 1111 q 326 1129 344 1111 q 308 1172 308 1147 q 326 1216 308 1198 q 370 1235 344 1235 q 414 1216 396 1235 q 433 1172 433 1198 "},"m":{"x_min":98.625,"x_max":757,"ha":856,"o":"m 637 0 l 566 543 l 427 76 l 288 543 l 216 0 l 98 0 l 261 1145 l 427 547 l 591 1145 l 757 0 l 637 0 "},"Е":{"x_min":100,"x_max":529.625,"ha":601,"o":"m 100 -232 l 100 1288 l 503 1288 l 503 1137 l 256 1137 l 256 672 l 503 672 l 503 521 l 256 521 l 256 -81 l 529 -81 l 529 -232 l 100 -232 "},"Э":{"x_min":50.25,"x_max":568,"ha":615,"o":"m 50 1147 l 50 1325 q 271 1186 175 1270 q 434 995 368 1101 q 534 765 500 888 q 568 512 568 642 q 534 269 568 388 q 436 46 501 149 q 276 -138 372 -57 q 55 -267 180 -219 l 55 -93 q 318 161 226 5 q 410 512 410 318 l 410 521 l 146 521 l 146 672 l 394 672 q 350 817 379 747 q 278 949 321 888 q 178 1061 234 1011 q 50 1147 121 1111 "},"ž":{"x_min":62.5,"x_max":450.03125,"ha":517,"o":"m 222 113 l 440 113 l 440 0 l 62 0 l 295 943 l 100 943 l 100 1056 l 450 1056 l 222 113 m 280 1090 l 251 1090 l 96 1340 l 115 1354 l 265 1216 l 414 1355 l 436 1341 l 280 1090 "},"ю":{"x_min":114,"x_max":977,"ha":1030,"o":"m 831 502 q 831 569 831 526 q 829 664 832 613 q 819 767 826 714 q 797 861 812 819 q 758 930 782 903 q 697 958 733 958 q 635 933 660 958 q 597 867 611 908 q 574 778 582 827 q 565 680 567 728 q 563 591 563 633 q 563 526 563 549 q 563 459 563 501 q 565 371 563 419 q 576 274 568 323 q 599 186 583 226 q 638 122 614 147 q 699 97 662 97 q 757 120 733 97 q 796 181 781 144 q 818 263 811 217 q 828 354 825 309 q 831 438 831 399 q 831 502 831 478 m 114 0 l 114 1056 l 245 1056 l 245 627 l 418 627 q 433 775 420 697 q 476 918 445 853 q 559 1025 507 983 q 697 1068 612 1068 q 814 1038 767 1068 q 892 962 861 1009 q 940 853 924 915 q 965 728 957 792 q 975 603 974 664 q 977 494 977 542 q 974 392 977 448 q 961 280 971 337 q 933 169 951 223 q 884 75 915 116 q 808 9 853 34 q 699 -16 763 -16 q 588 9 635 -16 q 510 77 542 35 q 461 175 479 120 q 433 288 443 230 q 420 405 423 347 q 417 514 417 463 l 245 514 l 245 0 l 114 0 "},"á":{"x_min":51.390625,"x_max":620.921875,"ha":638,"o":"m 315 621 l 251 342 l 379 342 l 315 621 m 455 0 l 401 234 l 229 234 l 176 0 l 51 0 l 300 1100 q 306 1112 301 1107 q 318 1117 311 1117 q 329 1111 327 1117 q 334 1099 331 1106 l 586 0 l 455 0 m 620 1356 q 603 1318 620 1337 q 563 1283 586 1299 q 515 1253 540 1266 q 476 1231 490 1240 l 352 1158 l 270 1158 l 394 1281 q 429 1318 408 1295 q 473 1362 450 1341 q 519 1398 495 1383 q 563 1414 543 1414 q 602 1397 584 1414 q 620 1356 620 1380 "},"×":{"x_min":137.515625,"x_max":695.890625,"ha":833,"o":"m 625 243 l 416 451 l 208 243 l 137 313 l 345 522 l 137 730 l 208 801 l 416 592 l 625 801 l 695 730 l 487 522 l 695 313 l 625 243 "},"п":{"x_min":114,"x_max":586,"ha":700,"o":"m 586 1056 l 586 0 l 455 0 l 455 943 l 245 943 l 245 0 l 114 0 l 114 1056 l 586 1056 "},"K":{"x_min":100,"x_max":639.359375,"ha":639,"o":"m 637 1288 l 383 580 l 639 -232 l 472 -232 l 256 472 l 256 -232 l 100 -232 l 100 1288 l 256 1288 l 256 686 l 468 1288 l 637 1288 "},"7":{"x_min":94.453125,"x_max":580.609375,"ha":643,"o":"m 243 0 l 108 0 l 409 935 l 94 935 l 94 1048 l 580 1048 l 243 0 "},"¨":{"x_min":64,"x_max":376,"ha":439,"o":"m 188 1172 q 169 1129 188 1147 q 126 1111 151 1111 q 82 1129 100 1111 q 64 1172 64 1147 q 82 1216 64 1198 q 126 1235 100 1235 q 169 1216 151 1235 q 188 1172 188 1198 m 376 1172 q 357 1129 376 1147 q 313 1111 339 1111 q 269 1129 287 1111 q 251 1172 251 1147 q 269 1216 251 1198 q 313 1235 287 1235 q 357 1216 339 1235 q 376 1172 376 1198 "},"Y":{"x_min":6.9375,"x_max":657,"ha":663,"o":"m 272 -232 l 118 -232 l 251 295 l 6 1288 l 161 1288 l 325 589 l 502 1288 l 657 1288 l 272 -232 "},"E":{"x_min":100,"x_max":529.625,"ha":601,"o":"m 100 -232 l 100 1288 l 503 1288 l 503 1137 l 256 1137 l 256 672 l 503 672 l 503 521 l 256 521 l 256 -81 l 529 -81 l 529 -232 l 100 -232 "},"Ô":{"x_min":68,"x_max":740,"ha":808,"o":"m 564 524 q 564 624 564 563 q 561 755 564 687 q 549 893 558 824 q 522 1018 540 963 q 476 1109 505 1074 q 404 1144 447 1144 q 331 1109 360 1144 q 285 1018 302 1074 q 258 893 267 963 q 246 755 249 824 q 244 624 244 687 q 244 524 244 563 q 244 423 244 485 q 247 293 244 361 q 260 155 250 224 q 287 30 269 85 q 334 -60 305 -25 q 406 -95 363 -95 q 478 -60 449 -95 q 524 30 506 -25 q 550 155 541 85 q 561 293 558 224 q 564 423 565 361 q 564 524 564 484 m 740 524 q 726 241 740 362 q 688 33 712 120 q 633 -109 665 -53 q 564 -198 601 -165 q 487 -243 527 -231 q 406 -256 447 -256 q 326 -243 366 -256 q 248 -198 285 -231 q 177 -110 211 -165 q 120 32 144 -54 q 81 240 95 119 q 68 524 68 362 q 97 920 68 767 q 175 1158 127 1073 q 283 1273 223 1242 q 404 1304 344 1304 q 524 1273 463 1304 q 632 1158 584 1242 q 710 920 680 1073 q 740 524 740 767 m 551 1323 l 401 1460 l 252 1321 l 230 1334 l 385 1587 l 414 1587 l 570 1336 l 551 1323 "},"‹":{"x_min":41.671875,"x_max":352.8125,"ha":419,"o":"m 41 484 l 41 562 l 352 847 l 352 706 l 145 522 l 352 340 l 352 200 l 41 484 "},"Ï":{"x_min":104,"x_max":416,"ha":364,"o":"m 104 -232 l 104 1288 l 260 1288 l 260 -232 l 104 -232 m 228 1397 q 209 1354 228 1372 q 166 1336 191 1336 q 122 1354 140 1336 q 104 1397 104 1372 q 122 1441 104 1423 q 166 1460 140 1460 q 209 1441 191 1460 q 228 1397 228 1423 m 416 1397 q 397 1354 416 1372 q 353 1336 379 1336 q 309 1354 327 1336 q 291 1397 291 1372 q 309 1441 291 1423 q 353 1460 327 1460 q 397 1441 379 1460 q 416 1397 416 1423 "},"Є":{"x_min":52,"x_max":569.75,"ha":615,"o":"m 569 1147 q 441 1061 498 1111 q 341 949 385 1011 q 269 817 298 888 q 225 672 240 747 l 473 672 l 473 521 l 210 521 l 210 512 q 301 161 210 318 q 564 -93 393 5 l 564 -267 q 343 -138 439 -219 q 183 46 247 -57 q 85 269 118 149 q 52 512 52 388 q 85 765 52 642 q 185 995 119 888 q 348 1186 251 1101 q 569 1325 444 1270 l 569 1147 l 569 1147 "},"±":{"x_min":113.890625,"x_max":719.796875,"ha":833,"o":"m 113 139 l 113 239 l 719 239 l 719 139 l 113 139 m 467 514 l 467 302 l 367 302 l 367 514 l 114 514 l 114 614 l 367 614 l 367 825 l 467 825 l 467 614 l 719 614 l 719 514 l 467 514 "},"ì":{"x_min":113.953125,"x_max":463.984375,"ha":358,"o":"m 114 0 l 114 1056 l 245 1056 l 245 0 l 114 0 m 382 1099 l 258 1172 q 218 1194 243 1181 q 171 1224 194 1207 q 131 1259 148 1240 q 113 1297 113 1278 q 132 1338 113 1321 q 170 1355 150 1355 q 215 1339 191 1355 q 261 1303 238 1324 q 304 1259 284 1282 q 340 1222 325 1236 l 463 1099 l 382 1099 "},"|":{"x_min":127,"x_max":221,"ha":347,"o":"m 127 -301 l 127 1068 l 221 1068 l 221 -301 l 127 -301 "},"§":{"x_min":118.4375,"x_max":576.5625,"ha":695,"o":"m 469 404 q 456 447 469 426 q 424 487 444 468 q 379 524 404 506 q 331 558 355 541 q 247 530 270 554 q 225 466 225 506 q 236 424 225 444 q 267 385 248 404 q 310 349 286 366 q 358 315 334 331 q 444 341 419 319 q 469 404 469 363 m 576 413 q 565 349 576 376 q 536 302 554 322 q 495 270 518 283 q 448 251 472 258 q 511 189 487 220 q 535 108 535 158 q 500 14 535 50 q 408 -40 465 -20 q 279 -67 351 -61 q 133 -73 208 -73 l 133 30 q 239 31 188 30 q 329 41 290 33 q 391 68 368 50 q 414 118 414 86 q 377 176 414 147 q 335 208 359 191 q 281 245 311 225 q 218 291 247 269 q 167 338 189 313 q 131 392 144 363 q 118 456 118 420 q 128 518 118 491 q 157 566 139 545 q 196 600 175 586 q 242 622 218 613 q 182 682 205 651 q 160 762 160 713 q 196 856 160 820 q 289 911 232 891 q 414 938 346 932 q 548 944 482 944 l 548 840 q 453 838 500 840 q 367 827 406 836 q 305 802 329 819 q 281 752 281 784 q 317 694 281 723 q 359 662 335 679 q 414 625 383 645 q 476 579 447 601 q 527 531 505 556 q 563 477 550 506 q 576 413 576 448 "},"й":{"x_min":114,"x_max":576,"ha":690,"o":"m 516 1292 q 490 1237 506 1268 q 452 1178 473 1207 q 403 1130 430 1150 q 345 1111 376 1111 q 288 1130 315 1111 q 240 1178 262 1149 q 202 1237 218 1206 q 176 1290 186 1267 l 223 1318 q 243 1275 233 1295 q 266 1239 252 1255 q 298 1213 280 1223 q 343 1204 316 1204 q 388 1213 369 1204 q 420 1239 406 1223 q 445 1276 434 1255 q 466 1320 455 1297 l 516 1292 l 516 1292 m 245 0 l 245 464 l 445 726 l 445 0 l 576 0 l 576 1092 l 245 661 l 245 1056 l 114 1056 l 114 0 l 245 0 "},"q":{"x_min":97,"x_max":657,"ha":754,"o":"m 511 506 q 511 574 511 531 q 509 665 512 616 q 499 765 506 715 q 477 857 492 816 q 437 924 462 898 q 377 951 413 951 q 317 927 341 951 q 278 866 292 903 q 255 783 263 828 q 246 692 248 737 q 244 606 244 646 q 244 542 244 566 q 244 444 244 506 q 251 319 245 383 q 271 199 257 255 q 312 119 285 144 l 312 232 l 440 232 l 440 115 q 482 191 467 140 q 503 300 497 241 q 510 414 509 358 q 511 506 511 470 m 657 503 q 652 357 657 437 q 627 203 648 277 q 563 69 606 128 q 440 -11 519 10 l 440 -135 l 312 -135 l 312 -11 q 187 83 231 21 q 124 219 144 144 q 100 377 103 295 q 97 533 97 459 q 99 638 97 580 q 111 754 102 695 q 139 867 120 812 q 189 966 158 923 q 266 1035 220 1009 q 377 1061 312 1061 q 493 1033 445 1061 q 571 959 540 1005 q 619 854 602 913 q 644 733 636 795 q 654 611 652 672 q 657 503 657 551 "},"b":{"x_min":114,"x_max":540,"ha":620,"o":"m 403 306 q 391 378 403 347 q 361 435 380 409 q 315 484 341 461 q 258 529 288 506 q 350 638 310 575 q 390 775 390 702 q 348 886 390 840 q 245 948 307 933 l 245 111 q 313 132 284 115 q 363 176 342 150 q 393 236 383 202 q 403 306 403 270 m 540 293 q 523 196 540 241 q 477 114 506 151 q 408 50 448 77 q 321 5 368 22 q 274 -7 300 -2 q 219 -15 247 -12 q 163 -19 190 -18 q 114 -20 136 -20 l 114 1077 q 256 1061 183 1077 q 389 1008 329 1044 q 487 915 449 972 q 526 776 526 858 q 497 647 526 708 q 425 536 469 586 q 508 427 477 490 q 540 293 540 363 "},"ﬂ":{"x_min":114,"x_max":978.796875,"ha":1045,"o":"m 449 393 l 245 393 l 245 943 l 449 943 l 449 1056 l 114 1056 l 114 0 l 245 0 l 245 280 l 449 280 l 449 393 m 245 280 l 245 0 l 114 0 l 114 1056 l 449 1056 l 449 943 l 245 943 l 245 393 l 449 393 l 449 280 l 245 280 m 645 0 l 645 1056 l 776 1056 l 776 113 l 978 113 l 978 0 l 645 0 "},"Ж":{"x_min":0.03125,"x_max":919.96875,"ha":920,"o":"m 382 686 l 382 1288 l 538 1288 l 538 686 l 750 1288 l 919 1288 l 665 580 l 919 -232 l 753 -232 l 538 475 l 538 -232 l 382 -232 l 382 475 l 166 -232 l 0 -232 l 254 580 l 0 1288 l 169 1288 l 382 686 "},"®":{"x_min":81,"x_max":615,"ha":694,"o":"m 562 858 q 545 934 562 899 q 499 996 528 969 q 431 1038 470 1023 q 348 1054 392 1054 q 263 1038 302 1054 q 194 996 223 1023 q 148 933 165 969 q 132 858 132 898 q 148 784 132 819 q 194 722 165 748 q 263 679 223 695 q 348 664 302 664 q 431 679 392 664 q 499 721 470 694 l 424 721 q 415 763 416 741 q 412 805 415 785 q 400 827 409 824 q 372 831 391 831 l 293 831 l 293 721 l 233 721 l 233 1001 l 363 1001 q 453 980 425 1001 q 481 919 481 960 q 453 858 481 876 q 475 814 476 842 q 478 761 475 786 q 482 745 479 753 q 501 722 486 738 q 545 785 528 750 q 562 858 562 820 m 417 919 q 407 943 417 936 q 364 950 397 950 l 293 950 l 293 884 l 359 884 q 407 892 397 884 q 417 919 417 900 m 615 858 q 594 764 615 808 q 536 689 573 721 q 451 638 499 657 q 348 620 402 620 q 243 638 291 620 q 158 689 194 657 q 101 764 122 721 q 81 858 81 808 q 101 954 81 909 q 158 1031 122 998 q 243 1082 194 1063 q 348 1101 291 1101 q 451 1082 402 1101 q 536 1031 499 1063 q 594 954 573 998 q 615 858 615 909 "},"Н":{"x_min":100,"x_max":667,"ha":767,"o":"m 511 -232 l 511 521 l 256 521 l 256 -232 l 100 -232 l 100 1288 l 256 1288 l 256 672 l 511 672 l 511 1288 l 667 1288 l 667 -232 l 511 -232 "},"ф":{"x_min":38,"x_max":761,"ha":799,"o":"m 162 539 q 175 452 162 496 q 211 368 188 408 q 266 297 235 329 q 334 244 297 265 l 334 828 q 266 776 297 807 q 212 708 235 746 q 175 628 189 671 q 162 539 162 584 m 637 539 q 623 628 637 584 q 586 708 609 671 q 531 776 563 746 q 464 828 499 807 l 465 244 q 532 297 501 265 q 587 368 563 329 q 623 452 610 408 q 637 539 637 496 m 38 543 q 58 675 38 612 q 118 793 79 739 q 212 891 157 847 q 334 967 267 935 l 334 1056 l 465 1056 l 465 967 q 586 891 531 935 q 680 793 641 847 q 740 675 719 739 q 761 543 761 612 q 739 404 761 469 q 679 283 717 339 q 585 183 640 227 q 465 105 530 138 l 465 0 l 334 0 l 334 105 q 213 183 268 138 q 119 283 158 227 q 59 404 81 339 q 38 543 38 469 "},"л":{"x_min":51.390625,"x_max":586.15625,"ha":638,"o":"m 315 621 l 176 0 l 51 0 l 300 1100 q 306 1112 301 1107 q 318 1117 311 1117 q 329 1111 327 1117 q 334 1098 331 1105 l 586 0 l 455 0 l 315 621 "},"L":{"x_min":100,"x_max":500.46875,"ha":500,"o":"m 100 -232 l 100 1288 l 256 1288 l 256 -81 l 500 -81 l 500 -232 l 100 -232 "},"Щ":{"x_min":100,"x_max":1085,"ha":1100,"o":"m 978 -66 l 1085 -66 l 1085 -419 l 961 -419 l 961 -232 l 100 -232 l 100 1288 l 256 1288 l 256 -74 l 455 -74 l 455 1288 l 611 1288 l 611 -74 l 811 -74 l 811 1288 l 967 1288 l 978 -66 "},";":{"x_min":40.828125,"x_max":224,"ha":267,"o":"m 224 55 q 211 -4 224 22 q 178 -53 199 -31 q 130 -91 157 -75 q 75 -119 103 -108 l 40 -84 q 83 -52 63 -70 q 114 -8 104 -33 q 65 19 86 -1 q 45 75 45 40 q 72 130 45 108 q 131 152 99 152 q 199 125 174 152 q 224 55 224 97 m 217 638 q 192 578 217 602 q 132 554 168 554 q 72 578 96 554 q 48 638 48 602 q 72 698 48 674 q 132 723 96 723 q 192 698 168 723 q 217 638 217 674 "}," ":{"x_min":0,"x_max":0,"ha":319},"∑":{"x_min":0,"x_max":0,"ha":695},"À":{"x_min":30.5625,"x_max":672.28125,"ha":703,"o":"m 345 704 l 272 257 l 422 257 l 345 704 m 515 -232 l 451 106 l 243 106 l 180 -232 l 30 -232 l 327 1351 q 335 1367 330 1359 q 350 1375 340 1375 q 364 1367 361 1375 q 370 1351 368 1359 l 672 -232 l 515 -232 m 322 1408 l 198 1481 q 158 1503 183 1490 q 111 1533 134 1516 q 71 1568 88 1549 q 53 1606 53 1587 q 72 1647 53 1630 q 110 1664 90 1664 q 155 1648 131 1664 q 201 1612 178 1633 q 244 1568 224 1591 q 280 1531 265 1545 l 403 1408 l 322 1408 "},"+":{"x_min":114.1875,"x_max":719.796875,"ha":833,"o":"m 467 472 l 467 219 l 367 219 l 367 472 l 114 472 l 114 572 l 367 572 l 367 824 l 467 824 l 467 572 l 719 572 l 719 472 l 467 472 "},"½":{"x_min":73.609375,"x_max":821,"ha":908,"o":"m 821 430 q 800 337 821 384 q 755 249 780 291 q 710 171 730 206 q 690 115 690 137 q 708 74 690 83 q 755 65 727 65 l 807 65 l 807 0 l 743 0 q 693 4 716 0 q 654 20 670 9 q 627 51 637 31 q 618 103 618 71 q 638 183 618 144 q 684 260 659 221 q 729 340 708 299 q 750 426 750 381 q 738 474 750 455 q 709 503 727 492 q 668 519 691 515 q 621 523 645 523 l 621 588 q 696 581 659 588 q 759 554 732 573 q 804 506 787 535 q 821 430 821 476 m 124 479 l 124 1056 l 196 1056 l 196 479 l 124 479 m 130 -35 l 73 17 l 747 1076 l 802 1023 l 130 -35 "},"Ë":{"x_min":100,"x_max":529.625,"ha":601,"o":"m 100 -232 l 100 1288 l 503 1288 l 503 1137 l 256 1137 l 256 672 l 503 672 l 503 521 l 256 521 l 256 -81 l 529 -81 l 529 -232 l 100 -232 m 257 1400 q 238 1357 257 1375 q 195 1339 220 1339 q 151 1357 169 1339 q 133 1400 133 1375 q 151 1444 133 1426 q 195 1463 169 1463 q 238 1444 220 1463 q 257 1400 257 1426 m 445 1400 q 426 1357 445 1375 q 382 1339 408 1339 q 338 1357 356 1339 q 320 1400 320 1375 q 338 1444 320 1426 q 382 1463 356 1463 q 426 1444 408 1463 q 445 1400 445 1426 "},"'":{"x_min":55.5,"x_max":177.515625,"ha":233,"o":"m 177 976 q 176 948 177 962 q 174 920 176 934 l 140 570 l 93 570 l 59 920 q 56 950 58 936 q 55 980 55 965 q 67 1040 55 1012 q 117 1068 79 1068 q 149 1059 137 1068 q 167 1038 160 1051 q 175 1008 173 1024 q 177 976 177 991 "},"Š":{"x_min":61,"x_max":546,"ha":589,"o":"m 546 47 q 461 -162 546 -93 q 227 -232 377 -232 l 75 -232 l 75 -60 l 196 -60 q 271 -56 236 -60 q 333 -41 307 -53 q 373 -6 358 -29 q 388 55 388 16 q 363 144 388 90 q 303 267 339 199 q 224 413 266 335 q 145 574 182 491 q 85 742 109 658 q 61 906 61 826 q 97 1093 61 1016 q 199 1217 134 1169 q 350 1286 263 1265 q 539 1307 437 1307 l 539 1127 q 416 1120 475 1127 q 314 1091 358 1113 q 244 1024 270 1068 q 219 906 219 980 q 243 759 219 834 q 303 609 267 684 q 382 461 340 534 q 461 315 424 387 q 521 176 497 244 q 546 47 546 108 m 330 1324 l 301 1324 l 146 1574 l 165 1588 l 315 1450 l 464 1589 l 486 1575 l 330 1324 "},"˛":{"x_min":99,"x_max":350.625,"ha":381,"o":"m 350 -169 q 292 -203 322 -188 q 229 -218 263 -218 q 137 -182 175 -218 q 99 -92 99 -146 q 105 -42 99 -64 q 121 0 112 -19 l 197 0 q 183 -35 190 -15 q 177 -72 177 -54 q 188 -119 177 -97 q 235 -142 199 -142 q 263 -137 247 -142 q 290 -126 279 -133 l 350 -169 l 350 -169 "},"Р":{"x_min":100,"x_max":611,"ha":667,"o":"m 462 654 q 446 772 462 713 q 404 883 431 830 q 339 983 377 936 q 256 1066 301 1030 l 255 229 q 338 312 301 262 q 403 419 376 362 q 446 536 431 476 q 462 654 462 597 m 611 656 q 588 465 611 558 q 520 293 565 373 q 409 145 476 212 q 256 29 343 77 l 256 -232 l 100 -232 l 100 1325 q 317 1235 222 1297 q 477 1086 412 1173 q 576 888 542 998 q 611 656 611 779 "},"щ":{"x_min":114,"x_max":941,"ha":1034,"o":"m 941 107 l 941 -111 l 834 -111 l 834 0 l 114 0 l 114 1056 l 245 1056 l 245 113 l 428 113 l 428 1056 l 559 1056 l 559 113 l 742 113 l 742 1056 l 873 1056 l 873 107 l 941 107 "},"ð":{"x_min":0.109375,"x_max":601,"ha":633,"o":"m 479 516 q 414 750 479 643 q 245 925 350 858 l 245 585 l 371 585 l 371 497 l 245 497 l 245 142 q 341 208 299 169 q 415 296 384 246 q 462 401 445 345 q 479 516 479 456 m 601 530 q 559 318 601 417 q 434 140 517 219 q 367 88 408 115 q 283 39 327 62 q 193 -1 238 16 q 114 -28 148 -19 l 114 497 l 0 497 l 0 585 l 114 585 l 114 1114 q 304 1023 215 1075 q 458 901 392 972 q 562 739 524 830 q 601 530 601 648 "},"ı":{"x_min":114,"x_max":245,"ha":358,"o":"m 114 0 l 114 1056 l 245 1056 l 245 0 l 114 0 "},"ä":{"x_min":51.390625,"x_max":586.15625,"ha":638,"o":"m 315 621 l 251 342 l 379 342 l 315 621 m 455 0 l 401 234 l 229 234 l 176 0 l 51 0 l 300 1100 q 306 1112 301 1107 q 318 1117 311 1117 q 329 1111 327 1117 q 334 1099 331 1106 l 586 0 l 455 0 m 287 1205 q 268 1162 287 1180 q 225 1144 250 1144 q 181 1162 199 1144 q 163 1205 163 1180 q 181 1249 163 1231 q 225 1268 199 1268 q 268 1249 250 1268 q 287 1205 287 1231 m 475 1205 q 456 1162 475 1180 q 412 1144 438 1144 q 368 1162 386 1144 q 350 1205 350 1180 q 368 1249 350 1231 q 412 1268 386 1268 q 456 1249 438 1268 q 475 1205 475 1231 "},"Т":{"x_min":7.09375,"x_max":542.28125,"ha":549,"o":"m 352 1137 l 352 -232 l 196 -232 l 196 1137 l 7 1137 l 7 1288 l 542 1288 l 542 1137 l 352 1137 "},"¹":{"x_min":170,"x_max":242,"ha":408,"o":"m 170 479 l 170 1056 l 242 1056 l 242 479 l 170 479 "},"£":{"x_min":58.4375,"x_max":583.90625,"ha":643,"o":"m 139 0 l 139 360 l 58 360 l 58 425 l 139 425 l 139 477 q 165 693 139 593 q 246 872 191 793 q 383 1010 300 952 q 578 1098 465 1068 l 578 981 q 444 911 501 958 q 347 802 386 865 q 289 666 308 740 q 270 515 270 593 l 270 425 l 447 425 l 447 360 l 270 360 l 270 113 l 583 113 l 583 0 l 139 0 "},"W":{"x_min":38.890625,"x_max":832.015625,"ha":871,"o":"m 657 -303 l 445 546 l 251 -301 l 38 1288 l 200 1288 l 300 546 l 447 1215 l 609 597 l 691 1288 l 832 1288 l 657 -303 "},"а":{"x_min":51.390625,"x_max":586.15625,"ha":638,"o":"m 315 621 l 251 342 l 379 342 l 315 621 m 455 0 l 401 234 l 229 234 l 176 0 l 51 0 l 300 1100 q 306 1112 301 1107 q 318 1117 311 1117 q 329 1111 327 1117 q 334 1099 331 1106 l 586 0 l 455 0 "},"v":{"x_min":98.625,"x_max":607,"ha":706,"o":"m 351 -45 l 98 1056 l 226 1056 l 354 486 l 484 1056 l 607 1056 l 351 -45 "},">":{"x_min":119.453125,"x_max":733.390625,"ha":833,"o":"m 119 200 l 119 312 l 579 522 l 119 734 l 119 847 l 733 562 l 733 484 l 119 200 "},"Ї":{"x_min":104,"x_max":417,"ha":364,"o":"m 228 1397 q 209 1354 228 1372 q 166 1336 191 1336 q 122 1354 140 1336 q 104 1397 104 1372 q 122 1441 104 1423 q 166 1460 140 1460 q 209 1441 191 1460 q 228 1397 228 1423 m 417 1397 q 398 1354 417 1372 q 354 1336 380 1336 q 310 1354 328 1336 q 292 1397 292 1372 q 310 1441 292 1423 q 354 1460 328 1460 q 398 1441 380 1460 q 417 1397 417 1423 m 104 -232 l 104 1288 l 260 1288 l 260 -232 l 104 -232 "},"û":{"x_min":114,"x_max":586,"ha":700,"o":"m 114 0 l 114 1056 l 245 1056 l 245 113 l 455 113 l 455 1056 l 586 1056 l 586 0 l 114 0 m 497 1105 l 347 1242 l 198 1103 l 176 1116 l 331 1369 l 360 1369 l 516 1118 l 497 1105 "},"Ð":{"x_min":-0.015625,"x_max":685,"ha":743,"o":"m 538 505 q 519 673 538 590 q 465 833 500 757 q 376 977 429 909 q 256 1095 324 1044 l 256 589 l 371 589 l 371 500 l 256 500 l 256 -32 q 378 68 325 8 q 466 199 431 127 q 519 349 501 270 q 538 505 538 427 m 685 529 q 637 228 685 375 q 484 -34 589 81 q 407 -107 454 -69 q 307 -179 359 -144 q 199 -240 254 -214 q 100 -278 144 -266 l 100 500 l 0 500 l 0 589 l 100 589 l 100 1366 q 345 1223 237 1304 q 530 1041 454 1143 q 645 811 605 939 q 685 529 685 684 "},"ˉ":{"x_min":54,"x_max":336,"ha":390,"o":"m 54 1111 l 54 1194 l 336 1194 l 336 1111 l 54 1111 "},"Х":{"x_min":23.609375,"x_max":598.65625,"ha":624,"o":"m 443 -232 l 305 254 l 169 -232 l 34 -232 l 230 512 l 23 1288 l 180 1288 l 313 823 l 440 1288 l 569 1288 l 386 557 l 598 -232 l 443 -232 "},"r":{"x_min":114,"x_max":530,"ha":594,"o":"m 404 594 q 391 678 404 636 q 357 759 379 720 q 307 832 336 798 q 245 890 278 865 l 244 316 q 306 366 277 336 q 357 432 335 395 q 391 511 379 469 q 404 594 404 552 m 530 601 q 484 411 530 500 q 363 254 438 322 l 522 0 l 377 0 l 263 187 l 245 177 l 245 0 l 114 0 l 114 1080 q 272 1016 197 1059 q 405 909 348 972 q 496 768 462 847 q 530 601 530 690 "},"ж":{"x_min":36.296875,"x_max":800.6875,"ha":836,"o":"m 353 646 l 353 1056 l 484 1056 l 484 646 l 660 1056 l 800 1056 l 590 568 l 790 0 l 650 0 l 484 466 l 484 0 l 353 0 l 353 466 l 186 0 l 46 0 l 246 568 l 36 1056 l 176 1056 l 353 646 "},"x":{"x_min":76.390625,"x_max":555.59375,"ha":632,"o":"m 425 0 l 306 374 l 197 0 l 84 0 l 244 532 l 76 1056 l 206 1056 l 318 705 l 423 1056 l 530 1056 l 377 551 l 555 0 l 425 0 "},"è":{"x_min":113.953125,"x_max":471.40625,"ha":540,"o":"m 114 0 l 114 1056 l 449 1056 l 449 943 l 245 943 l 245 627 l 449 627 l 449 514 l 245 514 l 245 113 l 471 113 l 471 0 l 114 0 m 382 1094 l 258 1167 q 218 1189 243 1176 q 171 1219 194 1202 q 131 1254 148 1235 q 113 1292 113 1273 q 132 1333 113 1316 q 170 1350 150 1350 q 215 1334 191 1350 q 261 1298 238 1319 q 304 1254 284 1277 q 340 1217 325 1231 l 463 1094 l 382 1094 "},"Ø":{"x_min":64,"x_max":746,"ha":808,"o":"m 564 524 q 564 649 564 573 q 557 812 564 727 l 266 116 q 286 33 275 71 q 315 -33 298 -4 q 354 -78 331 -61 q 407 -95 377 -95 q 478 -60 450 -95 q 524 30 507 -25 q 550 155 541 85 q 561 293 558 224 q 564 423 565 362 q 564 524 564 484 m 541 938 q 521 1019 532 981 q 492 1084 509 1056 q 454 1128 476 1112 q 403 1144 432 1144 q 331 1109 360 1144 q 285 1019 302 1074 q 258 894 267 963 q 246 755 249 824 q 244 624 244 687 q 244 524 244 563 q 244 401 244 477 q 251 242 244 326 l 541 938 l 541 938 m 667 1077 q 720 853 701 988 q 740 524 740 719 q 726 241 740 362 q 688 33 712 120 q 633 -109 665 -53 q 564 -198 601 -165 q 487 -243 527 -231 q 406 -256 446 -256 q 345 -249 376 -256 q 285 -224 314 -242 q 227 -178 255 -207 q 174 -104 199 -149 l 122 -231 l 64 -206 l 138 -25 q 87 197 106 63 q 68 524 68 331 q 97 920 68 767 q 175 1158 127 1073 q 283 1273 223 1242 q 404 1304 344 1304 q 465 1297 434 1304 q 524 1273 495 1290 q 581 1228 554 1256 q 633 1156 609 1199 l 687 1287 l 746 1262 l 667 1077 "},"с":{"x_min":68,"x_max":499.03125,"ha":608,"o":"m 499 958 q 380 884 435 927 q 285 785 325 840 q 221 665 244 730 q 199 527 199 600 q 221 389 199 454 q 284 270 244 325 q 378 173 324 216 q 494 97 432 130 l 494 -23 q 324 51 401 0 q 189 173 246 102 q 100 331 132 244 q 68 516 68 419 q 137 793 68 668 q 330 1002 207 918 q 412 1048 368 1029 q 499 1082 455 1066 l 499 958 l 499 958 "},"÷":{"x_min":113.890625,"x_max":719.5,"ha":833,"o":"m 489 353 q 468 301 489 322 q 417 281 447 281 q 365 301 386 281 q 345 353 345 322 q 365 404 345 383 q 417 425 386 425 q 468 404 447 425 q 489 353 489 383 m 113 472 l 113 572 l 719 572 l 719 472 l 113 472 m 489 692 q 468 640 489 661 q 417 620 447 620 q 365 640 386 620 q 345 692 345 661 q 365 743 345 722 q 417 764 386 764 q 468 743 447 764 q 489 692 489 722 "},"μ":{"x_min":12.5,"x_max":675.046875,"ha":753,"o":"m 570 0 l 431 0 l 441 62 q 384 1 418 20 q 318 -18 350 -18 q 204 47 248 -18 l 155 -238 l 12 -238 l 156 591 l 306 591 l 259 323 q 246 231 250 268 q 243 178 243 194 q 266 102 243 126 q 330 78 290 78 q 416 127 383 78 q 469 280 450 176 l 525 591 l 675 591 l 570 0 "},"h":{"x_min":114,"x_max":586,"ha":700,"o":"m 455 0 l 455 514 l 245 514 l 245 0 l 114 0 l 114 1056 l 245 1056 l 245 627 l 455 627 l 455 1056 l 586 1056 l 586 0 l 455 0 "},".":{"x_min":49,"x_max":218,"ha":267,"o":"m 218 68 q 193 8 218 32 q 133 -16 169 -16 q 73 8 97 -16 q 49 68 49 32 q 73 128 49 104 q 133 153 97 153 q 193 128 169 153 q 218 68 218 104 "},"f":{"x_min":114,"x_max":449.171875,"ha":529,"o":"m 245 514 l 245 0 l 114 0 l 114 1056 l 449 1056 l 449 943 l 245 943 l 245 627 l 449 627 l 449 514 l 245 514 "},"“":{"x_min":17,"x_max":408,"ha":417,"o":"m 200 1033 q 157 1000 177 1019 q 126 956 136 981 q 175 929 155 949 q 196 873 196 908 q 168 817 196 840 q 109 795 141 795 q 41 823 66 795 q 17 892 17 851 q 29 953 17 926 q 62 1002 41 980 q 110 1040 83 1023 q 165 1068 137 1056 l 200 1033 l 200 1033 m 408 1033 q 365 1000 385 1019 q 334 956 344 981 q 383 929 363 949 q 404 873 404 908 q 376 817 404 840 q 317 795 349 795 q 249 823 274 795 q 225 892 225 851 q 237 953 225 926 q 270 1002 249 980 q 318 1040 291 1023 q 373 1068 345 1056 l 408 1033 l 408 1033 "},"A":{"x_min":30.5625,"x_max":672.28125,"ha":703,"o":"m 345 704 l 272 257 l 422 257 l 345 704 m 515 -232 l 451 106 l 243 106 l 180 -232 l 30 -232 l 327 1351 q 335 1367 330 1359 q 350 1375 340 1375 q 364 1367 361 1375 q 370 1351 368 1359 l 672 -232 l 515 -232 "},"‘":{"x_min":17,"x_max":200.171875,"ha":209,"o":"m 200 1033 q 157 1000 177 1019 q 126 956 136 981 q 175 929 155 949 q 196 873 196 908 q 168 817 196 840 q 109 795 141 795 q 41 823 66 795 q 17 892 17 851 q 29 953 17 926 q 62 1002 41 980 q 110 1040 83 1023 q 165 1068 137 1056 l 200 1033 l 200 1033 "},"O":{"x_min":68,"x_max":740,"ha":808,"o":"m 564 524 q 564 624 564 563 q 561 755 564 687 q 549 893 558 824 q 522 1018 540 963 q 476 1109 505 1074 q 404 1144 447 1144 q 331 1109 360 1144 q 285 1018 302 1074 q 258 893 267 963 q 246 755 249 824 q 244 624 244 687 q 244 524 244 563 q 244 423 244 485 q 247 293 244 361 q 260 155 250 224 q 287 30 269 85 q 334 -60 305 -25 q 406 -95 363 -95 q 478 -60 449 -95 q 524 30 506 -25 q 550 155 541 85 q 561 293 558 224 q 564 423 565 361 q 564 524 564 484 m 740 524 q 726 241 740 362 q 688 33 712 120 q 633 -109 665 -53 q 564 -198 601 -165 q 487 -243 527 -231 q 406 -256 447 -256 q 326 -243 366 -256 q 248 -198 285 -231 q 177 -110 211 -165 q 120 32 144 -54 q 81 240 95 119 q 68 524 68 362 q 97 920 68 767 q 175 1158 127 1073 q 283 1273 223 1242 q 404 1304 344 1304 q 524 1273 463 1304 q 632 1158 584 1242 q 710 920 680 1073 q 740 524 740 767 "},"π":{"x_min":0,"x_max":0,"ha":695},"3":{"x_min":75.359375,"x_max":568,"ha":643,"o":"m 568 354 q 554 218 568 284 q 509 98 541 151 q 424 12 478 44 q 289 -20 371 -20 l 289 96 q 362 121 336 96 q 403 184 389 147 q 420 265 417 222 q 424 343 424 308 q 420 419 424 373 q 404 507 417 465 q 366 580 392 550 q 297 610 340 610 q 250 596 271 610 q 212 565 229 583 l 133 616 l 330 935 l 75 935 l 75 1048 l 532 1048 l 532 1018 l 350 720 q 460 681 418 720 q 526 587 502 643 q 559 469 550 532 q 568 354 568 405 "},"9":{"x_min":85,"x_max":558,"ha":643,"o":"m 412 692 q 412 763 412 719 q 404 851 412 807 q 378 927 396 895 q 320 959 359 959 q 259 925 278 959 q 233 846 240 892 q 227 753 226 801 q 229 680 229 706 q 228 606 229 652 q 235 515 227 559 q 262 438 242 471 q 323 406 281 406 q 382 440 363 406 q 407 522 400 475 q 413 617 414 569 q 412 692 412 665 m 558 681 q 544 461 558 566 q 490 265 530 355 q 376 103 449 175 q 186 -13 304 32 l 186 115 q 298 198 248 148 q 380 312 348 248 q 352 308 366 309 q 323 307 338 307 q 191 341 238 307 q 119 431 143 376 q 90 553 96 486 q 85 684 85 620 q 90 813 85 747 q 119 934 96 880 q 190 1023 143 988 q 320 1058 237 1058 q 451 1023 404 1058 q 523 933 499 988 q 552 812 546 878 q 558 681 558 745 "},"l":{"x_min":114,"x_max":447.796875,"ha":514,"o":"m 114 0 l 114 1056 l 245 1056 l 245 113 l 447 113 l 447 0 l 114 0 "},"4":{"x_min":30.3125,"x_max":577.40625,"ha":643,"o":"m 346 611 l 209 267 l 346 267 l 346 611 m 476 154 l 476 0 l 347 0 l 347 154 l 30 154 l 416 1079 l 476 1079 l 476 267 l 577 267 l 577 154 l 476 154 "},"Ъ":{"x_min":-0.234375,"x_max":755,"ha":808,"o":"m 403 672 q 494 645 451 663 q 687 476 620 590 q 755 210 755 362 q 687 -54 755 59 q 494 -224 620 -168 q 372 -254 441 -247 q 247 -263 303 -261 l 247 1137 l 0 1137 l 0 1288 l 403 1288 l 403 672 m 403 -72 q 489 -39 454 -68 q 547 30 524 -11 q 580 120 570 72 q 591 211 591 168 q 580 302 591 254 q 547 391 570 350 q 489 461 524 433 q 403 494 454 490 l 403 -72 "},"Ü":{"x_min":100,"x_max":667,"ha":767,"o":"m 100 -232 l 100 1288 l 256 1288 l 256 -74 l 511 -74 l 511 1288 l 667 1288 l 667 -232 l 100 -232 m 351 1405 q 332 1362 351 1380 q 289 1344 314 1344 q 245 1362 263 1344 q 227 1405 227 1380 q 245 1449 227 1431 q 289 1468 263 1468 q 332 1449 314 1468 q 351 1405 351 1431 m 539 1405 q 520 1362 539 1380 q 476 1344 502 1344 q 432 1362 450 1344 q 414 1405 414 1380 q 432 1449 414 1431 q 476 1468 450 1468 q 520 1449 502 1468 q 539 1405 539 1431 "},"à":{"x_min":51.390625,"x_max":586.15625,"ha":638,"o":"m 315 621 l 251 342 l 379 342 l 315 621 m 455 0 l 401 234 l 229 234 l 176 0 l 51 0 l 300 1100 q 306 1112 301 1107 q 318 1117 311 1117 q 329 1111 327 1117 q 334 1099 331 1106 l 586 0 l 455 0 m 322 1161 l 198 1234 q 158 1256 183 1243 q 111 1286 134 1269 q 71 1321 88 1302 q 53 1359 53 1340 q 72 1400 53 1383 q 110 1417 90 1417 q 155 1401 131 1417 q 201 1365 178 1386 q 244 1321 224 1344 q 280 1284 265 1298 l 403 1161 l 322 1161 "},"ó":{"x_min":97,"x_max":671.921875,"ha":754,"o":"m 511 502 q 511 569 511 526 q 509 664 512 613 q 499 767 506 714 q 477 861 492 819 q 438 930 462 903 q 377 958 413 958 q 315 933 340 958 q 277 867 291 908 q 254 778 262 827 q 245 680 247 728 q 243 591 243 633 q 243 526 243 549 q 243 459 243 501 q 245 371 243 419 q 256 274 248 323 q 279 186 263 226 q 318 122 294 147 q 379 97 342 97 q 437 120 413 97 q 476 181 461 144 q 498 263 491 217 q 508 354 505 309 q 511 438 511 399 q 511 502 511 478 m 657 494 q 654 392 657 448 q 641 280 651 337 q 613 169 631 223 q 564 75 595 116 q 488 9 533 34 q 379 -16 443 -16 q 265 11 312 -16 q 186 85 217 39 q 137 189 155 131 q 110 309 119 248 q 99 430 101 371 q 97 538 97 489 q 99 642 97 585 q 111 758 102 699 q 139 873 120 817 q 189 972 158 929 q 266 1041 220 1015 q 377 1068 312 1068 q 494 1038 447 1068 q 572 962 541 1009 q 620 853 604 915 q 645 728 637 792 q 655 603 654 664 q 657 494 657 542 m 671 1303 q 654 1265 671 1284 q 614 1230 637 1246 q 566 1200 591 1213 q 527 1178 541 1187 l 403 1105 l 321 1105 l 445 1228 q 480 1265 459 1242 q 524 1309 501 1288 q 570 1345 546 1330 q 614 1361 594 1361 q 653 1344 635 1361 q 671 1303 671 1327 "}}}
